<svg width="120" height="120" viewBox="0 0 120 120" fill="none" xmlns="http://www.w3.org/2000/svg">
<rect width="120" height="120" fill="black"/>
<path d="M55.0431 68.431C55.4898 70.5468 58.5102 70.5468 58.9569 68.431L63.4187 47.2965C63.6813 46.0531 62.7327 44.8833 61.4619 44.8833H52.5381C51.2673 44.8833 50.3187 46.0531 50.5813 47.2965L55.0431 68.431Z" fill="#E83421"/>
<ellipse cx="56.9752" cy="35.7607" rx="20.9752" ry="11.7607" fill="#E83421"/>
<path d="M29 29C29 31.7614 26.7614 34 24 34C21.2386 34 19 31.7614 19 29C19 26.2386 21.2386 24 24 24C26.7614 24 29 26.2386 29 29Z" fill="#E9E5E2"/>
<rect x="20" y="37" width="8" height="33" rx="4" fill="#E9E5E2"/>
<rect x="87" y="24" width="8" height="46" rx="4" fill="#E9E5E2"/>
<rect x="87" y="62" width="25" height="8" rx="4" fill="#E9E5E2"/>
<path d="M25.8548 98C24.9908 98 24.5588 97.528 24.5588 96.584V84.464L22.8308 85.592C22.0308 86.136 21.4068 86.04 20.9588 85.304C20.4948 84.568 20.6628 83.952 21.4628 83.456L24.3428 81.656C24.6308 81.48 24.9108 81.36 25.1828 81.296C25.4548 81.216 25.7668 81.176 26.1188 81.176C26.7908 81.176 27.1268 81.648 27.1268 82.592V96.584C27.1268 97.528 26.7028 98 25.8548 98ZM33.1072 98C32.1952 98 31.7392 97.528 31.7392 96.584V82.616C31.7392 81.672 32.2112 81.2 33.1552 81.2H41.7232C42.6832 81.2 43.1632 81.632 43.1632 82.496C43.1632 83.344 42.6832 83.768 41.7232 83.768H34.4992V88.136H41.0032C41.4512 88.136 41.7952 88.248 42.0352 88.472C42.2912 88.696 42.4192 89.016 42.4192 89.432C42.4192 90.296 41.9472 90.728 41.0032 90.728H34.4992V96.584C34.4992 97.528 34.0352 98 33.1072 98ZM53.4515 98C52.5235 98 52.0595 97.528 52.0595 96.584V82.616C52.0595 82.072 52.1955 81.704 52.4675 81.512C52.7555 81.304 53.1715 81.2 53.7155 81.2C54.4515 81.2 55.0115 81.52 55.3955 82.16L59.6435 89.264L63.8435 82.184C64.0675 81.784 64.3235 81.52 64.6115 81.392C64.9155 81.264 65.3075 81.2 65.7875 81.2C66.7315 81.2 67.2035 81.672 67.2035 82.616V96.584C67.2035 97.528 66.7315 98 65.7875 98C64.8435 98 64.3715 97.528 64.3715 96.584V86.024L60.9875 91.88C60.6515 92.536 60.1955 92.864 59.6195 92.864C59.0435 92.864 58.5875 92.536 58.2515 91.88L54.8435 86.024V96.584C54.8435 97.528 54.3795 98 53.4515 98ZM70.6945 98C70.2305 98 69.9105 97.864 69.7345 97.592C69.5585 97.32 69.5585 96.952 69.7345 96.488L75.1585 82.256C75.3985 81.552 75.9025 81.2 76.6705 81.2H76.8625C77.6305 81.2 78.1345 81.552 78.3745 82.256L83.8225 96.488C83.9985 96.952 83.9905 97.32 83.7985 97.592C83.6225 97.864 83.3025 98 82.8385 98H82.3825C81.6305 98 81.1345 97.64 80.8945 96.92L79.9585 94.304H73.5025L72.5665 96.92C72.3265 97.64 71.8305 98 71.0785 98H70.6945ZM74.4145 91.736H79.0705L76.7665 85.184L74.4145 91.736ZM87.7165 98C86.8045 98 86.3485 97.528 86.3485 96.584V82.616C86.3485 81.672 86.8205 81.2 87.7645 81.2H94.0285C95.5965 81.2 96.8365 81.568 97.7485 82.304C98.6765 83.04 99.1405 84.28 99.1405 86.024C99.1405 87.768 98.6765 89.016 97.7485 89.768C96.8365 90.52 95.5965 90.896 94.0285 90.896H89.1085V96.584C89.1085 97.528 88.6445 98 87.7165 98ZM89.1085 88.304H93.6445C94.4605 88.304 95.0925 88.128 95.5405 87.776C95.9885 87.424 96.2125 86.84 96.2125 86.024C96.2125 85.224 95.9885 84.648 95.5405 84.296C95.0925 83.944 94.4605 83.768 93.6445 83.768H89.1085V88.304Z" fill="#E9E5E2"/>
</svg>
