<svg width="600" height="1100" viewBox="0 0 600 1100" fill="none" xmlns="http://www.w3.org/2000/svg">
<rect width="600" height="1100" fill="white"/>
<rect x="52.5" y="52.5" width="495" height="995" stroke="black" stroke-width="5"/>
<rect x="302.5" y="52.5" width="245" height="445" stroke="black" stroke-width="5"/>
<rect x="2.5" y="-2.5" width="160" height="145" transform="matrix(1 0 0 -1 385 795)" stroke="black" stroke-width="5"/>
<rect x="52.5" y="502.5" width="145" height="145" stroke="black" stroke-width="5"/>
<path d="M110.616 582.592C110.381 582.592 110.179 582.501 110.008 582.32C109.837 582.149 109.752 581.947 109.752 581.712C109.752 581.467 109.837 581.264 110.008 581.104C110.179 580.933 110.381 580.848 110.616 580.848H116.232V577.888H112.84C112.605 577.888 112.397 577.803 112.216 577.632C112.045 577.461 111.96 577.253 111.96 577.008C111.96 576.763 112.045 576.56 112.216 576.4C112.397 576.229 112.605 576.144 112.84 576.144H116.232V573.664H112.856C112.653 574.027 112.44 574.379 112.216 574.72C111.992 575.051 111.773 575.355 111.56 575.632C111.389 575.856 111.165 576.005 110.888 576.08C110.611 576.144 110.349 576.091 110.104 575.92C109.891 575.781 109.763 575.584 109.72 575.328C109.677 575.072 109.731 574.843 109.88 574.64C110.2 574.235 110.531 573.744 110.872 573.168C111.224 572.592 111.555 572 111.864 571.392C112.173 570.784 112.419 570.229 112.6 569.728C112.707 569.429 112.877 569.237 113.112 569.152C113.357 569.056 113.613 569.051 113.88 569.136C114.125 569.211 114.301 569.365 114.408 569.6C114.525 569.835 114.531 570.091 114.424 570.368C114.232 570.88 114.008 571.408 113.752 571.952H116.232V569.6C116.232 569.291 116.328 569.045 116.52 568.864C116.723 568.683 116.963 568.592 117.24 568.592C117.517 568.592 117.752 568.683 117.944 568.864C118.147 569.045 118.248 569.291 118.248 569.6V571.952H122.776C123.021 571.952 123.224 572.037 123.384 572.208C123.555 572.368 123.64 572.565 123.64 572.8C123.64 573.035 123.555 573.237 123.384 573.408C123.224 573.579 123.021 573.664 122.776 573.664H118.248V576.144H121.56C121.805 576.144 122.013 576.229 122.184 576.4C122.355 576.56 122.44 576.763 122.44 577.008C122.44 577.253 122.355 577.461 122.184 577.632C122.013 577.803 121.805 577.888 121.56 577.888H118.248V580.848H123.352C123.597 580.848 123.8 580.933 123.96 581.104C124.131 581.264 124.216 581.467 124.216 581.712C124.216 581.947 124.131 582.149 123.96 582.32C123.8 582.501 123.597 582.592 123.352 582.592H110.616ZM132.312 583.232C132.056 583.232 131.843 583.163 131.672 583.024C131.501 582.896 131.411 582.709 131.4 582.464C131.389 582.24 131.453 582.048 131.592 581.888C131.741 581.717 131.944 581.621 132.2 581.6C132.488 581.579 132.68 581.531 132.776 581.456C132.883 581.371 132.963 581.195 133.016 580.928C133.048 580.747 133.075 580.517 133.096 580.24C133.117 579.952 133.133 579.659 133.144 579.36C133.165 579.051 133.128 578.843 133.032 578.736C132.947 578.629 132.749 578.571 132.44 578.56C132.323 579.435 132.12 580.213 131.832 580.896C131.555 581.579 131.171 582.219 130.68 582.816C130.531 583.019 130.328 583.141 130.072 583.184C129.827 583.227 129.597 583.168 129.384 583.008C129.192 582.859 129.091 582.661 129.08 582.416C129.08 582.181 129.155 581.979 129.304 581.808C129.709 581.371 130.029 580.885 130.264 580.352C130.499 579.819 130.669 579.221 130.776 578.56H130.072C129.848 578.56 129.656 578.485 129.496 578.336C129.347 578.176 129.272 577.984 129.272 577.76C129.272 577.536 129.347 577.349 129.496 577.2C129.656 577.04 129.848 576.96 130.072 576.96H130.92C130.931 576.843 130.936 576.725 130.936 576.608C130.936 576.48 130.936 576.357 130.936 576.24C130.936 576.176 130.941 576.112 130.952 576.048C130.963 575.984 130.984 575.925 131.016 575.872C130.835 575.819 130.691 575.707 130.584 575.536C130.445 575.323 130.408 575.093 130.472 574.848C130.536 574.592 130.675 574.411 130.888 574.304C131.592 573.973 132.136 573.616 132.52 573.232C132.904 572.848 133.192 572.389 133.384 571.856H131.56C131.347 571.856 131.16 571.776 131 571.616C130.84 571.456 130.76 571.269 130.76 571.056C130.76 570.843 130.84 570.656 131 570.496C131.16 570.336 131.347 570.256 131.56 570.256H133.72C133.741 570.085 133.757 569.915 133.768 569.744C133.779 569.563 133.789 569.376 133.8 569.184C133.821 568.885 133.928 568.667 134.12 568.528C134.323 568.379 134.552 568.315 134.808 568.336C135.085 568.347 135.299 568.453 135.448 568.656C135.597 568.848 135.661 569.099 135.64 569.408C135.629 569.547 135.613 569.691 135.592 569.84C135.581 569.979 135.565 570.117 135.544 570.256H136.52C137.16 570.256 137.667 570.325 138.04 570.464C138.413 570.603 138.669 570.848 138.808 571.2C138.957 571.541 139.005 572.021 138.952 572.64C138.899 573.387 138.755 573.968 138.52 574.384C138.285 574.789 137.971 575.072 137.576 575.232C137.181 575.381 136.712 575.456 136.168 575.456C135.901 575.456 135.672 575.387 135.48 575.248C135.299 575.099 135.197 574.885 135.176 574.608C135.165 574.363 135.235 574.149 135.384 573.968C135.544 573.787 135.768 573.691 136.056 573.68C136.451 573.659 136.717 573.589 136.856 573.472C136.995 573.355 137.091 573.099 137.144 572.704C137.197 572.363 137.171 572.139 137.064 572.032C136.957 571.915 136.739 571.856 136.408 571.856H135.224C134.968 572.709 134.6 573.44 134.12 574.048C133.64 574.645 133.016 575.152 132.248 575.568C132.483 575.728 132.6 575.957 132.6 576.256C132.6 576.373 132.595 576.491 132.584 576.608C132.584 576.725 132.584 576.843 132.584 576.96C133.437 576.971 134.019 577.136 134.328 577.456C134.648 577.776 134.797 578.352 134.776 579.184C134.765 579.483 134.744 579.824 134.712 580.208C134.68 580.592 134.637 580.949 134.584 581.28C134.499 581.941 134.28 582.427 133.928 582.736C133.576 583.045 133.037 583.211 132.312 583.232ZM128.024 583.44C127.779 583.44 127.565 583.355 127.384 583.184C127.203 583.013 127.112 582.795 127.112 582.528V573.984H126.168C125.923 573.984 125.709 573.893 125.528 573.712C125.347 573.531 125.256 573.317 125.256 573.072C125.256 572.827 125.347 572.613 125.528 572.432C125.709 572.251 125.923 572.16 126.168 572.16H127.112V569.344C127.112 569.067 127.203 568.848 127.384 568.688C127.565 568.517 127.779 568.432 128.024 568.432C128.28 568.432 128.493 568.517 128.664 568.688C128.845 568.848 128.936 569.067 128.936 569.344V572.16H129.784C130.04 572.16 130.253 572.251 130.424 572.432C130.605 572.613 130.696 572.827 130.696 573.072C130.696 573.317 130.605 573.531 130.424 573.712C130.253 573.893 130.04 573.984 129.784 573.984H128.936V582.528C128.936 582.795 128.845 583.013 128.664 583.184C128.493 583.355 128.28 583.44 128.024 583.44ZM137.688 583.232C137.421 583.232 137.203 583.163 137.032 583.024C136.872 582.896 136.787 582.709 136.776 582.464C136.765 582.24 136.829 582.048 136.968 581.888C137.107 581.717 137.309 581.621 137.576 581.6C137.864 581.579 138.056 581.531 138.152 581.456C138.248 581.371 138.323 581.195 138.376 580.928C138.408 580.747 138.435 580.517 138.456 580.24C138.488 579.952 138.509 579.659 138.52 579.36C138.541 579.04 138.499 578.832 138.392 578.736C138.296 578.629 138.083 578.571 137.752 578.56C137.645 579.435 137.453 580.213 137.176 580.896C136.909 581.579 136.531 582.219 136.04 582.816C135.88 583.008 135.677 583.125 135.432 583.168C135.187 583.221 134.957 583.168 134.744 583.008C134.552 582.859 134.451 582.661 134.44 582.416C134.429 582.181 134.504 581.979 134.664 581.808C135.069 581.371 135.384 580.885 135.608 580.352C135.832 579.819 135.992 579.221 136.088 578.56H135.592C135.368 578.56 135.176 578.485 135.016 578.336C134.867 578.176 134.792 577.984 134.792 577.76C134.792 577.536 134.867 577.349 135.016 577.2C135.176 577.04 135.368 576.96 135.592 576.96H136.216C136.216 576.917 136.216 576.88 136.216 576.848C136.216 576.805 136.216 576.763 136.216 576.72C136.216 576.635 136.216 576.555 136.216 576.48C136.227 576.395 136.227 576.315 136.216 576.24C136.216 575.995 136.296 575.803 136.456 575.664C136.627 575.515 136.824 575.44 137.048 575.44C137.283 575.44 137.48 575.515 137.64 575.664C137.811 575.813 137.896 576.011 137.896 576.256C137.896 576.373 137.891 576.491 137.88 576.608C137.88 576.725 137.88 576.843 137.88 576.96C138.467 576.96 138.925 577.029 139.256 577.168C139.597 577.307 139.832 577.536 139.96 577.856C140.099 578.176 140.157 578.619 140.136 579.184C140.125 579.483 140.104 579.824 140.072 580.208C140.051 580.592 140.013 580.949 139.96 581.28C139.864 581.941 139.64 582.427 139.288 582.736C138.947 583.045 138.413 583.211 137.688 583.232Z" fill="black"/>
<path d="M451.024 732.688C450.757 732.688 450.528 732.592 450.336 732.4C450.144 732.208 450.048 731.979 450.048 731.712V720.656C450.048 720.379 450.144 720.149 450.336 719.968C450.528 719.776 450.757 719.68 451.024 719.68C451.301 719.68 451.536 719.776 451.728 719.968C451.92 720.149 452.016 720.379 452.016 720.656V724.512C452.155 724.299 452.347 724.16 452.592 724.096C452.837 724.021 453.077 724.043 453.312 724.16C453.941 724.491 454.581 724.869 455.232 725.296C455.893 725.723 456.464 726.139 456.944 726.544C457.157 726.715 457.275 726.944 457.296 727.232C457.328 727.509 457.253 727.755 457.072 727.968C456.901 728.171 456.677 728.288 456.4 728.32C456.123 728.341 455.877 728.267 455.664 728.096C455.365 727.861 455.019 727.611 454.624 727.344C454.24 727.077 453.851 726.821 453.456 726.576C453.072 726.32 452.72 726.101 452.4 725.92C452.229 725.824 452.101 725.707 452.016 725.568V731.712C452.016 731.979 451.92 732.208 451.728 732.4C451.536 732.592 451.301 732.688 451.024 732.688ZM468.8 732.704C468.533 732.704 468.304 732.603 468.112 732.4C467.92 732.208 467.824 731.979 467.824 731.712V725.312C467.141 725.909 466.437 726.485 465.712 727.04C464.987 727.595 464.261 728.101 463.536 728.56C463.301 728.699 463.051 728.736 462.784 728.672C462.528 728.608 462.325 728.459 462.176 728.224C462.037 727.989 462 727.739 462.064 727.472C462.128 727.205 462.277 727.003 462.512 726.864C463.184 726.448 463.883 725.963 464.608 725.408C465.344 724.853 466.059 724.261 466.752 723.632C467.456 723.003 468.101 722.373 468.688 721.744C469.285 721.104 469.781 720.501 470.176 719.936C470.336 719.712 470.549 719.573 470.816 719.52C471.083 719.467 471.328 719.52 471.552 719.68C471.776 719.829 471.915 720.043 471.968 720.32C472.021 720.587 471.968 720.832 471.808 721.056C471.253 721.803 470.581 722.587 469.792 723.408V731.712C469.792 731.979 469.696 732.208 469.504 732.4C469.312 732.603 469.077 732.704 468.8 732.704ZM483.456 730.384C481.984 730.885 480.821 730.928 479.968 730.512C479.125 730.085 478.704 729.195 478.704 727.84V722.352C478.704 722.075 478.8 721.84 478.992 721.648C479.195 721.456 479.429 721.36 479.696 721.36C479.973 721.36 480.208 721.456 480.4 721.648C480.592 721.84 480.688 722.075 480.688 722.352V727.632C480.688 728.197 480.848 728.555 481.168 728.704C481.488 728.843 482.021 728.795 482.768 728.56C483.813 728.229 484.853 727.781 485.888 727.216C486.933 726.64 487.877 726.032 488.72 725.392C488.944 725.232 489.189 725.168 489.456 725.2C489.733 725.232 489.957 725.36 490.128 725.584C490.288 725.797 490.347 726.043 490.304 726.32C490.272 726.587 490.149 726.805 489.936 726.976C489.381 727.403 488.747 727.829 488.032 728.256C487.328 728.672 486.581 729.067 485.792 729.44C485.013 729.803 484.235 730.117 483.456 730.384Z" fill="black"/>
<rect x="84.5" y="914.5" width="51" height="14" fill="black" stroke="black" stroke-width="5"/>
<rect x="84.5" y="983.5" width="51" height="14" fill="black" stroke="black" stroke-width="5"/>
<rect x="159.5" y="983.5" width="51" height="14" fill="black" stroke="black" stroke-width="5"/>
<rect x="159.5" y="914.5" width="51" height="14" fill="black" stroke="black" stroke-width="5"/>
<rect x="114.5" y="417.5" width="125" height="25" fill="black" stroke="black" stroke-width="5"/>
<rect x="114.5" y="347.5" width="125" height="25" fill="black" stroke="black" stroke-width="5"/>
<rect x="114.5" y="277.5" width="125" height="25" fill="black" stroke="black" stroke-width="5"/>
<rect x="-2.5" y="2.5" width="7" height="103" transform="matrix(-1 0 0 1 245 860)" fill="black" stroke="black" stroke-width="5"/>
<rect x="-2.5" y="2.5" width="7" height="103" transform="matrix(-1 0 0 1 245 705)" fill="black" stroke="black" stroke-width="5"/>
<rect x="94.5" y="717.5" width="32" height="34" fill="black" stroke="black" stroke-width="5"/>
<rect x="166.5" y="717.5" width="31" height="34" fill="black" stroke="black" stroke-width="5"/>
<rect x="166.5" y="795.5" width="31" height="67" fill="black" stroke="black" stroke-width="5"/>
<rect x="94.5" y="795.5" width="32" height="67" fill="black" stroke="black" stroke-width="5"/>
<rect x="240.5" y="187.5" width="57" height="34" fill="black" stroke="black" stroke-width="5"/>
<rect x="240.5" y="127.5" width="57" height="34" fill="black" stroke="black" stroke-width="5"/>
<rect x="240.5" y="68.5" width="57" height="34" fill="black" stroke="black" stroke-width="5"/>
<line x1="238" y1="174.5" x2="301" y2="174.5" stroke="black"/>
<line x1="238" y1="114.5" x2="301" y2="114.5" stroke="black"/>
<rect x="66.5" y="429.5" width="19" height="18" fill="black" stroke="black" stroke-width="5"/>
<rect x="66.5" y="390.5" width="19" height="18" fill="black" stroke="black" stroke-width="5"/>
<rect x="66.5" y="351.5" width="19" height="18" fill="black" stroke="black" stroke-width="5"/>
<rect x="66.5" y="312.5" width="19" height="18" fill="black" stroke="black" stroke-width="5"/>
<rect x="66.5" y="250.5" width="19" height="18" fill="black" stroke="black" stroke-width="5"/>
<rect x="66.5" y="211.5" width="19" height="18" fill="black" stroke="black" stroke-width="5"/>
<rect x="66.5" y="172.5" width="19" height="18" fill="black" stroke="black" stroke-width="5"/>
<rect x="66.5" y="133.5" width="19" height="18" fill="black" stroke="black" stroke-width="5"/>
<rect x="66.5" y="94.5" width="19" height="18" fill="black" stroke="black" stroke-width="5"/>
<rect x="66.5" y="55.5" width="19" height="18" fill="black" stroke="black" stroke-width="5"/>
<mask id="mask0_1_4" style="mask-type:alpha" maskUnits="userSpaceOnUse" x="51" y="271" width="46" height="39">
<rect x="53.5" y="273.5" width="41" height="34" fill="black" stroke="black" stroke-width="5"/>
</mask>
<g mask="url(#mask0_1_4)">
<rect x="33" y="290.062" width="3" height="97" transform="rotate(-45 33 290.062)" fill="black"/>
<rect x="49.9706" y="273.092" width="3" height="97" transform="rotate(-45 49.9706 273.092)" fill="black"/>
<rect x="54.2132" y="268.849" width="3" height="97" transform="rotate(-45 54.2132 268.849)" fill="black"/>
<rect x="58.4558" y="264.607" width="3" height="97" transform="rotate(-45 58.4558 264.607)" fill="black"/>
<rect x="62.6985" y="260.364" width="3" height="97" transform="rotate(-45 62.6985 260.364)" fill="black"/>
<rect x="66.9411" y="256.121" width="3" height="97" transform="rotate(-45 66.9411 256.121)" fill="black"/>
<rect x="41.4853" y="281.577" width="3" height="97" transform="rotate(-45 41.4853 281.577)" fill="black"/>
<rect x="45.7279" y="277.335" width="3" height="97" transform="rotate(-45 45.7279 277.335)" fill="black"/>
<rect x="37.2426" y="285.82" width="3" height="97" transform="rotate(-45 37.2426 285.82)" fill="black"/>
</g>
<rect x="52.5" y="272.5" width="43" height="36" fill="black" fill-opacity="0.02" stroke="black" stroke-width="3"/>
<rect x="377.5" y="1029.5" width="165" height="18" fill="black" stroke="black" stroke-width="5"/>
<rect x="416.5" y="862.5" width="32" height="34" fill="black" stroke="black" stroke-width="5"/>
<rect x="416.5" y="917.5" width="32" height="34" fill="black" stroke="black" stroke-width="5"/>
<rect x="416.5" y="972.5" width="32" height="34" fill="black" stroke="black" stroke-width="5"/>
<rect x="488.5" y="972.5" width="32" height="34" fill="black" stroke="black" stroke-width="5"/>
<rect x="488.5" y="917.5" width="32" height="34" fill="black" stroke="black" stroke-width="5"/>
<rect x="488.5" y="862.5" width="32" height="34" fill="black" stroke="black" stroke-width="5"/>
<circle cx="437.5" cy="830.5" r="17.5" fill="black"/>
<circle cx="499.5" cy="830.5" r="17.5" fill="black"/>
<mask id="mask1_1_4" style="mask-type:alpha" maskUnits="userSpaceOnUse" x="126" y="754" width="41" height="39">
<rect x="128.5" y="756.5" width="36" height="34" fill="black" stroke="black" stroke-width="5"/>
</mask>
<g mask="url(#mask1_1_4)">
<rect width="3.16632" height="52.772" transform="matrix(0.742393 -0.669964 0.742393 0.669964 106.054 773.062)" fill="black"/>
<rect width="3.16632" height="52.772" transform="matrix(0.742393 -0.669964 0.742393 0.669964 124.859 756.092)" fill="black"/>
<rect width="3.16632" height="52.772" transform="matrix(0.742393 -0.669964 0.742393 0.669964 129.561 751.849)" fill="black"/>
<rect width="3.16632" height="52.772" transform="matrix(0.742393 -0.669964 0.742393 0.669964 134.262 747.607)" fill="black"/>
<rect width="3.16632" height="52.772" transform="matrix(0.742393 -0.669964 0.742393 0.669964 138.963 743.364)" fill="black"/>
<rect width="3.16632" height="52.772" transform="matrix(0.742393 -0.669964 0.742393 0.669964 143.665 739.121)" fill="black"/>
<rect width="3.16632" height="52.772" transform="matrix(0.742393 -0.669964 0.742393 0.669964 115.457 764.577)" fill="black"/>
<rect width="3.16632" height="52.772" transform="matrix(0.742393 -0.669964 0.742393 0.669964 120.158 760.335)" fill="black"/>
<rect width="3.16632" height="52.772" transform="matrix(0.742393 -0.669964 0.742393 0.669964 110.755 768.82)" fill="black"/>
</g>
<rect x="127.5" y="755.5" width="38" height="36" fill="black" fill-opacity="0.02" stroke="black" stroke-width="3"/>
<mask id="mask2_1_4" style="mask-type:alpha" maskUnits="userSpaceOnUse" x="231" y="494" width="37" height="39">
<rect x="233.5" y="496.5" width="32" height="34" fill="black" stroke="black" stroke-width="5"/>
</mask>
<g mask="url(#mask2_1_4)">
<rect x="213" y="513.062" width="3" height="50" transform="rotate(-45 213 513.062)" fill="black"/>
<rect x="229.971" y="496.092" width="3" height="50" transform="rotate(-45 229.971 496.092)" fill="black"/>
<rect x="234.213" y="491.849" width="3" height="50" transform="rotate(-45 234.213 491.849)" fill="black"/>
<rect x="238.456" y="487.607" width="3" height="50" transform="rotate(-45 238.456 487.607)" fill="black"/>
<rect x="242.698" y="483.364" width="3" height="50" transform="rotate(-45 242.698 483.364)" fill="black"/>
<rect x="246.941" y="479.121" width="3" height="50" transform="rotate(-45 246.941 479.121)" fill="black"/>
<rect x="221.485" y="504.577" width="3" height="50" transform="rotate(-45 221.485 504.577)" fill="black"/>
<rect x="225.728" y="500.335" width="3" height="50" transform="rotate(-45 225.728 500.335)" fill="black"/>
<rect x="217.243" y="508.82" width="3" height="50" transform="rotate(-45 217.243 508.82)" fill="black"/>
</g>
<rect x="232.5" y="495.5" width="34" height="36" fill="black" fill-opacity="0.02" stroke="black" stroke-width="3"/>
<mask id="mask3_1_4" style="mask-type:alpha" maskUnits="userSpaceOnUse" x="420" y="495" width="130" height="160">
<rect x="422.5" y="497.5" width="125" height="155" fill="black" stroke="black" stroke-width="5"/>
</mask>
<g mask="url(#mask3_1_4)">
<rect width="12.1548" height="258" transform="matrix(0.6981 -0.716 0.6981 0.716 330 573.205)" fill="black"/>
<rect width="12.1548" height="258" transform="matrix(0.6981 -0.716 0.6981 0.716 397.882 503.582)" fill="black"/>
<rect width="12.1548" height="258" transform="matrix(0.6981 -0.716 0.6981 0.716 414.853 486.176)" fill="black"/>
<rect width="12.1548" height="258" transform="matrix(0.6981 -0.716 0.6981 0.716 431.823 468.771)" fill="black"/>
<rect width="12.1548" height="258" transform="matrix(0.6981 -0.716 0.6981 0.716 448.794 451.365)" fill="black"/>
<rect width="12.1548" height="258" transform="matrix(0.6981 -0.716 0.6981 0.716 465.765 433.959)" fill="black"/>
<rect width="12.1548" height="258" transform="matrix(0.6981 -0.716 0.6981 0.716 363.941 538.393)" fill="black"/>
<rect width="12.1548" height="258" transform="matrix(0.6981 -0.716 0.6981 0.716 380.912 520.988)" fill="black"/>
<rect width="12.1548" height="258" transform="matrix(0.6981 -0.716 0.6981 0.716 346.971 555.799)" fill="black"/>
</g>
<rect x="422.5" y="497.5" width="125" height="155" fill="black" fill-opacity="0.02" stroke="black" stroke-width="5"/>
<circle cx="129.5" cy="107.5" r="17.5" fill="black"/>
<circle cx="129.5" cy="205.5" r="17.5" fill="black"/>
<circle cx="199.5" cy="205.5" r="17.5" fill="black"/>
<circle cx="199.5" cy="107.5" r="17.5" fill="black"/>
<circle cx="164.5" cy="156.5" r="17.5" fill="black"/>
</svg>
