<svg width="600" height="1100" viewBox="0 0 600 1100" fill="none" xmlns="http://www.w3.org/2000/svg">
<rect width="600" height="1100" fill="black"/>
<path d="M550 1050H350V1045H545V55H55V1045H250V1050H50V50H550V1050Z" fill="#E9E5E2"/>
<g filter="url(#filter0_d_1_4)">
<rect x="252.5" y="1014.5" width="95" height="43" stroke="#E9E5E2" stroke-width="5" shape-rendering="crispEdges"/>
</g>
<path d="M279.336 1047.32C278.952 1047.56 278.536 1047.65 278.088 1047.58C277.64 1047.52 277.296 1047.29 277.056 1046.89C276.848 1046.52 276.808 1046.13 276.936 1045.71C277.064 1045.3 277.328 1044.98 277.728 1044.75C279.52 1043.71 281.064 1042.45 282.36 1040.96C283.672 1039.46 284.712 1037.85 285.48 1036.14C286.264 1034.41 286.728 1032.7 286.872 1031C286.936 1030.36 286.832 1029.91 286.56 1029.66C286.304 1029.4 285.792 1029.27 285.024 1029.27H282.408C282.04 1029.27 281.72 1029.14 281.448 1028.89C281.192 1028.62 281.064 1028.3 281.064 1027.93C281.064 1027.56 281.192 1027.25 281.448 1026.99C281.72 1026.72 282.04 1026.58 282.408 1026.58H285.024C286.224 1026.58 287.168 1026.7 287.856 1026.94C288.56 1027.18 289.064 1027.6 289.368 1028.19C289.672 1028.77 289.824 1029.58 289.824 1030.62C289.824 1032.58 290.176 1034.42 290.88 1036.14C291.584 1037.85 292.584 1039.42 293.88 1040.86C295.192 1042.3 296.736 1043.6 298.512 1044.75C298.88 1044.99 299.096 1045.34 299.16 1045.78C299.24 1046.23 299.152 1046.63 298.896 1046.98C298.64 1047.37 298.28 1047.58 297.816 1047.61C297.368 1047.66 296.952 1047.54 296.568 1047.27C294.68 1045.94 292.992 1044.41 291.504 1042.66C290.016 1040.92 288.896 1038.94 288.144 1036.74C287.216 1038.93 286.008 1040.93 284.52 1042.74C283.032 1044.53 281.304 1046.06 279.336 1047.32ZM309.888 1045.18C307.664 1045.18 305.976 1044.66 304.824 1043.6C303.672 1042.53 303.096 1040.83 303.096 1038.51V1035.25C303.096 1032.91 303.696 1031.22 304.896 1030.16C306.096 1029.1 307.808 1028.58 310.032 1028.58H313.968C316.208 1028.58 317.92 1029.1 319.104 1030.16C320.304 1031.22 320.904 1032.91 320.904 1035.25V1038.51C320.904 1040.83 320.304 1042.53 319.104 1043.6C317.92 1044.66 316.208 1045.18 313.968 1045.18H309.888ZM310.488 1042.42H313.656C315.112 1042.42 316.168 1042.14 316.824 1041.56C317.48 1040.97 317.808 1039.94 317.808 1038.46V1035.3C317.808 1033.82 317.48 1032.8 316.824 1032.22C316.168 1031.63 315.112 1031.34 313.656 1031.34H310.344C308.888 1031.34 307.832 1031.63 307.176 1032.22C306.52 1032.8 306.192 1033.82 306.192 1035.3V1038.46C306.192 1039.94 306.544 1040.97 307.248 1041.56C307.952 1042.14 309.032 1042.42 310.488 1042.42Z" fill="#E9E5E2"/>
<path d="M550 500H300V450H305V495H545V55H305V388H300V50H550V500Z" fill="#E9E5E2"/>
<rect x="52.5" y="502.5" width="145" height="145" stroke="#E9E5E2" stroke-width="5"/>
<path d="M103.424 585.888C103.072 585.888 102.768 585.752 102.512 585.48C102.256 585.224 102.128 584.92 102.128 584.568C102.128 584.2 102.256 583.896 102.512 583.656C102.768 583.4 103.072 583.272 103.424 583.272H111.848V578.832H106.76C106.408 578.832 106.096 578.704 105.824 578.448C105.568 578.192 105.44 577.88 105.44 577.512C105.44 577.144 105.568 576.84 105.824 576.6C106.096 576.344 106.408 576.216 106.76 576.216H111.848V572.496H106.784C106.48 573.04 106.16 573.568 105.824 574.08C105.488 574.576 105.16 575.032 104.84 575.448C104.584 575.784 104.248 576.008 103.832 576.12C103.416 576.216 103.024 576.136 102.656 575.88C102.336 575.672 102.144 575.376 102.08 574.992C102.016 574.608 102.096 574.264 102.32 573.96C102.8 573.352 103.296 572.616 103.808 571.752C104.336 570.888 104.832 570 105.296 569.088C105.76 568.176 106.128 567.344 106.4 566.592C106.56 566.144 106.816 565.856 107.168 565.728C107.536 565.584 107.92 565.576 108.32 565.704C108.688 565.816 108.952 566.048 109.112 566.4C109.288 566.752 109.296 567.136 109.136 567.552C108.848 568.32 108.512 569.112 108.128 569.928H111.848V566.4C111.848 565.936 111.992 565.568 112.28 565.296C112.584 565.024 112.944 564.888 113.36 564.888C113.776 564.888 114.128 565.024 114.416 565.296C114.72 565.568 114.872 565.936 114.872 566.4V569.928H121.664C122.032 569.928 122.336 570.056 122.576 570.312C122.832 570.552 122.96 570.848 122.96 571.2C122.96 571.552 122.832 571.856 122.576 572.112C122.336 572.368 122.032 572.496 121.664 572.496H114.872V576.216H119.84C120.208 576.216 120.52 576.344 120.776 576.6C121.032 576.84 121.16 577.144 121.16 577.512C121.16 577.88 121.032 578.192 120.776 578.448C120.52 578.704 120.208 578.832 119.84 578.832H114.872V583.272H122.528C122.896 583.272 123.2 583.4 123.44 583.656C123.696 583.896 123.824 584.2 123.824 584.568C123.824 584.92 123.696 585.224 123.44 585.48C123.2 585.752 122.896 585.888 122.528 585.888H103.424ZM135.968 586.848C135.584 586.848 135.264 586.744 135.008 586.536C134.752 586.344 134.616 586.064 134.6 585.696C134.584 585.36 134.68 585.072 134.888 584.832C135.112 584.576 135.416 584.432 135.8 584.4C136.232 584.368 136.52 584.296 136.664 584.184C136.824 584.056 136.944 583.792 137.024 583.392C137.072 583.12 137.112 582.776 137.144 582.36C137.176 581.928 137.2 581.488 137.216 581.04C137.248 580.576 137.192 580.264 137.048 580.104C136.92 579.944 136.624 579.856 136.16 579.84C135.984 581.152 135.68 582.32 135.248 583.344C134.832 584.368 134.256 585.328 133.52 586.224C133.296 586.528 132.992 586.712 132.608 586.776C132.24 586.84 131.896 586.752 131.576 586.512C131.288 586.288 131.136 585.992 131.12 585.624C131.12 585.272 131.232 584.968 131.456 584.712C132.064 584.056 132.544 583.328 132.896 582.528C133.248 581.728 133.504 580.832 133.664 579.84H132.608C132.272 579.84 131.984 579.728 131.744 579.504C131.52 579.264 131.408 578.976 131.408 578.64C131.408 578.304 131.52 578.024 131.744 577.8C131.984 577.56 132.272 577.44 132.608 577.44H133.88C133.896 577.264 133.904 577.088 133.904 576.912C133.904 576.72 133.904 576.536 133.904 576.36C133.904 576.264 133.912 576.168 133.928 576.072C133.944 575.976 133.976 575.888 134.024 575.808C133.752 575.728 133.536 575.56 133.376 575.304C133.168 574.984 133.112 574.64 133.208 574.272C133.304 573.888 133.512 573.616 133.832 573.456C134.888 572.96 135.704 572.424 136.28 571.848C136.856 571.272 137.288 570.584 137.576 569.784H134.84C134.52 569.784 134.24 569.664 134 569.424C133.76 569.184 133.64 568.904 133.64 568.584C133.64 568.264 133.76 567.984 134 567.744C134.24 567.504 134.52 567.384 134.84 567.384H138.08C138.112 567.128 138.136 566.872 138.152 566.616C138.168 566.344 138.184 566.064 138.2 565.776C138.232 565.328 138.392 565 138.68 564.792C138.984 564.568 139.328 564.472 139.712 564.504C140.128 564.52 140.448 564.68 140.672 564.984C140.896 565.272 140.992 565.648 140.96 566.112C140.944 566.32 140.92 566.536 140.888 566.76C140.872 566.968 140.848 567.176 140.816 567.384H142.28C143.24 567.384 144 567.488 144.56 567.696C145.12 567.904 145.504 568.272 145.712 568.8C145.936 569.312 146.008 570.032 145.928 570.96C145.848 572.08 145.632 572.952 145.28 573.576C144.928 574.184 144.456 574.608 143.864 574.848C143.272 575.072 142.568 575.184 141.752 575.184C141.352 575.184 141.008 575.08 140.72 574.872C140.448 574.648 140.296 574.328 140.264 573.912C140.248 573.544 140.352 573.224 140.576 572.952C140.816 572.68 141.152 572.536 141.584 572.52C142.176 572.488 142.576 572.384 142.784 572.208C142.992 572.032 143.136 571.648 143.216 571.056C143.296 570.544 143.256 570.208 143.096 570.048C142.936 569.872 142.608 569.784 142.112 569.784H140.336C139.952 571.064 139.4 572.16 138.68 573.072C137.96 573.968 137.024 574.728 135.872 575.352C136.224 575.592 136.4 575.936 136.4 576.384C136.4 576.56 136.392 576.736 136.376 576.912C136.376 577.088 136.376 577.264 136.376 577.44C137.656 577.456 138.528 577.704 138.992 578.184C139.472 578.664 139.696 579.528 139.664 580.776C139.648 581.224 139.616 581.736 139.568 582.312C139.52 582.888 139.456 583.424 139.376 583.92C139.248 584.912 138.92 585.64 138.392 586.104C137.864 586.568 137.056 586.816 135.968 586.848ZM129.536 587.16C129.168 587.16 128.848 587.032 128.576 586.776C128.304 586.52 128.168 586.192 128.168 585.792V572.976H126.752C126.384 572.976 126.064 572.84 125.792 572.568C125.52 572.296 125.384 571.976 125.384 571.608C125.384 571.24 125.52 570.92 125.792 570.648C126.064 570.376 126.384 570.24 126.752 570.24H128.168V566.016C128.168 565.6 128.304 565.272 128.576 565.032C128.848 564.776 129.168 564.648 129.536 564.648C129.92 564.648 130.24 564.776 130.496 565.032C130.768 565.272 130.904 565.6 130.904 566.016V570.24H132.176C132.56 570.24 132.88 570.376 133.136 570.648C133.408 570.92 133.544 571.24 133.544 571.608C133.544 571.976 133.408 572.296 133.136 572.568C132.88 572.84 132.56 572.976 132.176 572.976H130.904V585.792C130.904 586.192 130.768 586.52 130.496 586.776C130.24 587.032 129.92 587.16 129.536 587.16ZM144.032 586.848C143.632 586.848 143.304 586.744 143.048 586.536C142.808 586.344 142.68 586.064 142.664 585.696C142.648 585.36 142.744 585.072 142.952 584.832C143.16 584.576 143.464 584.432 143.864 584.4C144.296 584.368 144.584 584.296 144.728 584.184C144.872 584.056 144.984 583.792 145.064 583.392C145.112 583.12 145.152 582.776 145.184 582.36C145.232 581.928 145.264 581.488 145.28 581.04C145.312 580.56 145.248 580.248 145.088 580.104C144.944 579.944 144.624 579.856 144.128 579.84C143.968 581.152 143.68 582.32 143.264 583.344C142.864 584.368 142.296 585.328 141.56 586.224C141.32 586.512 141.016 586.688 140.648 586.752C140.28 586.832 139.936 586.752 139.616 586.512C139.328 586.288 139.176 585.992 139.16 585.624C139.144 585.272 139.256 584.968 139.496 584.712C140.104 584.056 140.576 583.328 140.912 582.528C141.248 581.728 141.488 580.832 141.632 579.84H140.888C140.552 579.84 140.264 579.728 140.024 579.504C139.8 579.264 139.688 578.976 139.688 578.64C139.688 578.304 139.8 578.024 140.024 577.8C140.264 577.56 140.552 577.44 140.888 577.44H141.824C141.824 577.376 141.824 577.32 141.824 577.272C141.824 577.208 141.824 577.144 141.824 577.08C141.824 576.952 141.824 576.832 141.824 576.72C141.84 576.592 141.84 576.472 141.824 576.36C141.824 575.992 141.944 575.704 142.184 575.496C142.44 575.272 142.736 575.16 143.072 575.16C143.424 575.16 143.72 575.272 143.96 575.496C144.216 575.72 144.344 576.016 144.344 576.384C144.344 576.56 144.336 576.736 144.32 576.912C144.32 577.088 144.32 577.264 144.32 577.44C145.2 577.44 145.888 577.544 146.384 577.752C146.896 577.96 147.248 578.304 147.44 578.784C147.648 579.264 147.736 579.928 147.704 580.776C147.688 581.224 147.656 581.736 147.608 582.312C147.576 582.888 147.52 583.424 147.44 583.92C147.296 584.912 146.96 585.64 146.432 586.104C145.92 586.568 145.12 586.816 144.032 586.848Z" fill="#E9E5E2"/>
<path d="M339.54 1085C338.644 1085 338.196 1084.53 338.196 1083.58V1074.87C338.196 1073.93 338.644 1073.46 339.54 1073.46C340.436 1073.46 340.884 1073.93 340.884 1074.87V1083.58C340.884 1084.53 340.436 1085 339.54 1085ZM339.516 1071.56C339.052 1071.56 338.652 1071.39 338.316 1071.06C337.98 1070.72 337.812 1070.32 337.812 1069.86C337.812 1069.39 337.98 1068.99 338.316 1068.66C338.652 1068.32 339.052 1068.15 339.516 1068.15C339.98 1068.15 340.38 1068.32 340.716 1068.66C341.052 1068.99 341.22 1069.39 341.22 1069.86C341.22 1070.32 341.052 1070.72 340.716 1071.06C340.38 1071.39 339.98 1071.56 339.516 1071.56ZM349.828 1085C348.884 1085 348.412 1084.53 348.412 1083.58V1070.77H344.764C343.82 1070.77 343.348 1070.34 343.348 1069.5C343.348 1068.63 343.82 1068.2 344.764 1068.2H354.82C355.78 1068.2 356.26 1068.63 356.26 1069.5C356.26 1070.34 355.78 1070.77 354.82 1070.77H351.22V1083.58C351.22 1084.53 350.756 1085 349.828 1085ZM360.022 1085C359.078 1085 358.606 1084.53 358.606 1083.58V1069.62C358.606 1068.67 359.062 1068.2 359.974 1068.2C360.902 1068.2 361.366 1068.67 361.366 1069.62V1082.43H368.71C369.654 1082.43 370.126 1082.86 370.126 1083.7C370.126 1084.57 369.654 1085 368.71 1085H360.022ZM373.422 1080.34C373.07 1080.34 372.766 1080.22 372.51 1079.98C372.27 1079.73 372.15 1079.42 372.15 1079.07C372.15 1078.72 372.27 1078.42 372.51 1078.18C372.766 1077.93 373.07 1077.8 373.422 1077.8H379.278C379.63 1077.8 379.926 1077.93 380.166 1078.18C380.422 1078.42 380.55 1078.72 380.55 1079.07C380.55 1079.42 380.422 1079.73 380.166 1079.98C379.926 1080.22 379.63 1080.34 379.278 1080.34H373.422ZM387.761 1085C386.897 1085 386.465 1084.53 386.465 1083.58V1071.46L384.737 1072.59C383.937 1073.14 383.313 1073.04 382.865 1072.3C382.401 1071.57 382.569 1070.95 383.369 1070.46L386.249 1068.66C386.537 1068.48 386.817 1068.36 387.089 1068.3C387.361 1068.22 387.673 1068.18 388.025 1068.18C388.697 1068.18 389.033 1068.65 389.033 1069.59V1083.58C389.033 1084.53 388.609 1085 387.761 1085ZM395.013 1085C394.101 1085 393.645 1084.53 393.645 1083.58V1069.62C393.645 1068.67 394.117 1068.2 395.061 1068.2H403.629C404.589 1068.2 405.069 1068.63 405.069 1069.5C405.069 1070.34 404.589 1070.77 403.629 1070.77H396.405V1075.14H402.909C403.357 1075.14 403.701 1075.25 403.941 1075.47C404.197 1075.7 404.325 1076.02 404.325 1076.43C404.325 1077.3 403.853 1077.73 402.909 1077.73H396.405V1083.58C396.405 1084.53 395.941 1085 395.013 1085ZM408.367 1080.34C408.015 1080.34 407.711 1080.22 407.455 1079.98C407.215 1079.73 407.095 1079.42 407.095 1079.07C407.095 1078.72 407.215 1078.42 407.455 1078.18C407.711 1077.93 408.015 1077.8 408.367 1077.8H414.223C414.575 1077.8 414.871 1077.93 415.111 1078.18C415.367 1078.42 415.495 1078.72 415.495 1079.07C415.495 1079.42 415.367 1079.73 415.111 1079.98C414.871 1080.22 414.575 1080.34 414.223 1080.34H408.367ZM419.898 1085C418.986 1085 418.53 1084.53 418.53 1083.58V1074.87C418.53 1073.93 418.938 1073.46 419.754 1073.46C420.554 1073.46 420.978 1073.66 421.026 1074.08L421.122 1074.85C421.346 1074.37 421.722 1073.97 422.25 1073.65C422.778 1073.33 423.386 1073.17 424.074 1073.17C424.826 1073.17 425.482 1073.34 426.042 1073.7C426.602 1074.05 427.034 1074.55 427.338 1075.21C427.642 1074.62 428.082 1074.13 428.658 1073.74C429.25 1073.36 429.922 1073.17 430.674 1073.17C431.81 1073.17 432.722 1073.57 433.41 1074.37C434.114 1075.15 434.466 1076.26 434.466 1077.7V1083.58C434.466 1084.53 434.018 1085 433.122 1085C432.194 1085 431.73 1084.53 431.73 1083.58V1078.33C431.73 1077.48 431.578 1076.82 431.274 1076.34C430.97 1075.86 430.546 1075.62 430.002 1075.62C429.314 1075.62 428.778 1075.86 428.394 1076.36C428.026 1076.86 427.842 1077.56 427.842 1078.47V1083.58C427.842 1084.53 427.394 1085 426.498 1085C425.586 1085 425.13 1084.53 425.13 1083.58V1078.33C425.13 1077.48 424.97 1076.82 424.65 1076.34C424.33 1075.86 423.898 1075.62 423.354 1075.62C422.682 1075.62 422.162 1075.87 421.794 1076.38C421.426 1076.88 421.242 1077.58 421.242 1078.47V1083.58C421.242 1084.53 420.794 1085 419.898 1085ZM441.19 1085.17C439.942 1085.22 438.91 1084.94 438.094 1084.35C437.294 1083.76 436.894 1082.9 436.894 1081.78C436.894 1080.97 437.142 1080.27 437.638 1079.7C438.134 1079.12 438.774 1078.67 439.558 1078.35C440.342 1078.02 441.15 1077.84 441.982 1077.82C442.398 1077.79 442.79 1077.82 443.158 1077.92C443.526 1078.02 443.854 1078.15 444.142 1078.33V1077.32C444.142 1076.57 443.982 1076.08 443.662 1075.86C443.342 1075.63 442.87 1075.52 442.246 1075.52C441.798 1075.52 441.326 1075.58 440.83 1075.69C440.35 1075.8 439.878 1075.95 439.414 1076.14C438.998 1076.32 438.638 1076.38 438.334 1076.34C438.046 1076.29 437.806 1076.1 437.614 1075.76C437.422 1075.42 437.374 1075.1 437.47 1074.8C437.582 1074.48 437.854 1074.23 438.286 1074.06C438.862 1073.78 439.486 1073.57 440.158 1073.41C440.846 1073.25 441.542 1073.17 442.246 1073.17C443.734 1073.17 444.854 1073.47 445.606 1074.08C446.358 1074.67 446.734 1075.75 446.734 1077.32V1082.62C446.734 1082.78 446.75 1082.91 446.782 1083.01C446.83 1083.1 446.87 1083.18 446.902 1083.22C447.046 1083.43 447.198 1083.55 447.358 1083.58C447.534 1083.62 447.686 1083.64 447.814 1083.66C447.942 1083.66 448.006 1083.73 448.006 1083.87C448.006 1084.16 447.926 1084.41 447.766 1084.62C447.622 1084.82 447.374 1084.97 447.022 1085.05C446.654 1085.13 446.294 1085.17 445.942 1085.17C445.446 1085.17 445.062 1085.09 444.79 1084.93C444.534 1084.75 444.35 1084.46 444.238 1084.06C443.838 1084.4 443.374 1084.66 442.846 1084.86C442.318 1085.03 441.766 1085.14 441.19 1085.17ZM441.142 1082.82C442.038 1082.78 442.774 1082.61 443.35 1082.29C443.942 1081.97 444.222 1081.51 444.19 1080.92C444.174 1080.54 443.974 1080.27 443.59 1080.13C443.222 1079.98 442.758 1079.93 442.198 1079.96C441.414 1079.98 440.766 1080.18 440.254 1080.56C439.742 1080.93 439.494 1081.34 439.51 1081.81C439.542 1082.53 440.086 1082.86 441.142 1082.82ZM451.586 1089.73C450.674 1089.73 450.218 1089.26 450.218 1088.31V1074.87C450.218 1073.93 450.618 1073.46 451.418 1073.46C452.186 1073.46 452.594 1073.62 452.642 1073.96L452.714 1074.73C453.53 1073.69 454.602 1073.17 455.93 1073.17C457.002 1073.17 457.954 1073.41 458.786 1073.89C459.634 1074.37 460.298 1075.06 460.778 1075.98C461.258 1076.87 461.498 1077.95 461.498 1079.22C461.498 1080.48 461.258 1081.57 460.778 1082.48C460.298 1083.38 459.634 1084.06 458.786 1084.54C457.954 1085.02 457.002 1085.26 455.93 1085.26C455.338 1085.26 454.786 1085.15 454.274 1084.93C453.762 1084.69 453.314 1084.36 452.93 1083.94V1088.31C452.93 1088.76 452.81 1089.1 452.57 1089.34C452.346 1089.6 452.018 1089.73 451.586 1089.73ZM455.834 1082.82C456.682 1082.82 457.386 1082.5 457.946 1081.88C458.506 1081.26 458.786 1080.37 458.786 1079.22C458.786 1078.06 458.506 1077.18 457.946 1076.55C457.386 1075.93 456.682 1075.62 455.834 1075.62C454.986 1075.62 454.282 1075.93 453.722 1076.55C453.162 1077.18 452.882 1078.06 452.882 1079.22C452.882 1080.37 453.162 1081.26 453.722 1081.88C454.282 1082.5 454.986 1082.82 455.834 1082.82ZM465.467 1085.26C464.971 1085.26 464.539 1085.09 464.171 1084.74C463.819 1084.38 463.643 1083.96 463.643 1083.46C463.643 1082.95 463.819 1082.52 464.171 1082.17C464.539 1081.82 464.971 1081.64 465.467 1081.64C465.963 1081.64 466.387 1081.82 466.739 1082.17C467.107 1082.52 467.291 1082.95 467.291 1083.46C467.291 1083.96 467.107 1084.38 466.739 1084.74C466.387 1085.09 465.963 1085.26 465.467 1085.26ZM473.718 1085.05C473.366 1085.05 473.03 1084.95 472.71 1084.76C472.39 1084.57 472.158 1084.27 472.014 1083.87L468.678 1075.09C468.486 1074.58 468.462 1074.18 468.606 1073.89C468.766 1073.6 469.102 1073.46 469.614 1073.46C470.446 1073.46 470.99 1073.83 471.246 1074.58L473.718 1081.54L476.214 1074.58C476.47 1073.83 477.006 1073.46 477.822 1073.46C478.254 1073.46 478.542 1073.6 478.686 1073.89C478.83 1074.18 478.814 1074.58 478.638 1075.09L475.422 1083.85C475.278 1084.25 475.046 1084.55 474.726 1084.76C474.406 1084.95 474.07 1085.05 473.718 1085.05ZM485.75 1085.26C484.07 1085.26 482.71 1084.76 481.67 1083.75C480.63 1082.73 480.11 1081.22 480.11 1079.22C480.11 1077.97 480.342 1076.9 480.806 1076C481.27 1075.09 481.918 1074.39 482.75 1073.91C483.582 1073.42 484.534 1073.17 485.606 1073.17C486.678 1073.17 487.59 1073.42 488.342 1073.91C489.094 1074.41 489.67 1075.05 490.07 1075.83C490.47 1076.62 490.67 1077.43 490.67 1078.28C490.67 1078.87 490.55 1079.26 490.31 1079.46C490.07 1079.63 489.718 1079.72 489.254 1079.72H482.774C482.838 1080.87 483.142 1081.7 483.686 1082.19C484.23 1082.67 484.934 1082.91 485.798 1082.91C486.774 1082.91 487.534 1082.58 488.078 1081.9C488.398 1081.57 488.694 1081.35 488.966 1081.26C489.254 1081.14 489.558 1081.2 489.878 1081.42C490.198 1081.65 490.382 1081.94 490.43 1082.29C490.478 1082.64 490.334 1083.01 489.998 1083.39C489.454 1084.05 488.83 1084.53 488.126 1084.83C487.422 1085.12 486.63 1085.26 485.75 1085.26ZM482.894 1077.63H488.006C487.878 1076.88 487.598 1076.3 487.166 1075.9C486.75 1075.49 486.214 1075.28 485.558 1075.28C484.854 1075.28 484.27 1075.47 483.806 1075.86C483.358 1076.24 483.054 1076.83 482.894 1077.63ZM494.594 1085C493.682 1085 493.226 1084.53 493.226 1083.58V1074.87C493.226 1073.93 493.698 1073.46 494.642 1073.46C494.962 1073.46 495.242 1073.54 495.482 1073.7C495.722 1073.84 495.842 1074.12 495.842 1074.54V1075.09C496.13 1074.51 496.578 1074.05 497.186 1073.7C497.81 1073.34 498.466 1073.17 499.154 1073.17C499.65 1073.17 500.026 1073.3 500.282 1073.58C500.554 1073.83 500.69 1074.18 500.69 1074.63C500.69 1075.05 500.586 1075.35 500.378 1075.54C500.17 1075.74 499.93 1075.82 499.658 1075.78C499.53 1075.77 499.394 1075.76 499.25 1075.76C499.106 1075.74 498.946 1075.74 498.77 1075.74C497.986 1075.74 497.314 1075.99 496.754 1076.5C496.21 1077.02 495.938 1077.74 495.938 1078.66V1083.58C495.938 1084.53 495.49 1085 494.594 1085ZM507.358 1085.26C506.302 1085.26 505.35 1085.02 504.502 1084.52C503.67 1084.01 503.006 1083.3 502.51 1082.41C502.03 1081.5 501.79 1080.43 501.79 1079.22C501.79 1078 502.03 1076.94 502.51 1076.05C503.006 1075.14 503.67 1074.43 504.502 1073.94C505.35 1073.42 506.302 1073.17 507.358 1073.17C508.734 1073.17 509.886 1073.55 510.814 1074.32C511.198 1074.61 511.366 1074.93 511.318 1075.28C511.286 1075.63 511.102 1075.94 510.766 1076.19C510.414 1076.43 510.11 1076.54 509.854 1076.5C509.614 1076.47 509.294 1076.33 508.894 1076.07C508.446 1075.77 507.934 1075.62 507.358 1075.62C506.526 1075.62 505.846 1075.93 505.318 1076.55C504.79 1077.18 504.526 1078.06 504.526 1079.22C504.526 1080.37 504.79 1081.26 505.318 1081.88C505.846 1082.5 506.526 1082.82 507.358 1082.82C507.95 1082.82 508.446 1082.67 508.846 1082.38C509.214 1082.16 509.534 1082.02 509.806 1081.95C510.094 1081.87 510.406 1081.96 510.742 1082.22C511.094 1082.47 511.294 1082.78 511.342 1083.13C511.39 1083.46 511.23 1083.78 510.862 1084.06C509.886 1084.86 508.718 1085.26 507.358 1085.26ZM518.75 1085.26C517.07 1085.26 515.71 1084.76 514.67 1083.75C513.63 1082.73 513.11 1081.22 513.11 1079.22C513.11 1077.97 513.342 1076.9 513.806 1076C514.27 1075.09 514.918 1074.39 515.75 1073.91C516.582 1073.42 517.534 1073.17 518.606 1073.17C519.678 1073.17 520.59 1073.42 521.342 1073.91C522.094 1074.41 522.67 1075.05 523.07 1075.83C523.47 1076.62 523.67 1077.43 523.67 1078.28C523.67 1078.87 523.55 1079.26 523.31 1079.46C523.07 1079.63 522.718 1079.72 522.254 1079.72H515.774C515.838 1080.87 516.142 1081.7 516.686 1082.19C517.23 1082.67 517.934 1082.91 518.798 1082.91C519.774 1082.91 520.534 1082.58 521.078 1081.9C521.398 1081.57 521.694 1081.35 521.966 1081.26C522.254 1081.14 522.558 1081.2 522.878 1081.42C523.198 1081.65 523.382 1081.94 523.43 1082.29C523.478 1082.64 523.334 1083.01 522.998 1083.39C522.454 1084.05 521.83 1084.53 521.126 1084.83C520.422 1085.12 519.63 1085.26 518.75 1085.26ZM515.894 1077.63H521.006C520.878 1076.88 520.598 1076.3 520.166 1075.9C519.75 1075.49 519.214 1075.28 518.558 1075.28C517.854 1075.28 517.27 1075.47 516.806 1075.86C516.358 1076.24 516.054 1076.83 515.894 1077.63ZM527.594 1085C526.682 1085 526.226 1084.53 526.226 1083.58V1069.3C526.226 1068.36 526.682 1067.89 527.594 1067.89C528.49 1067.89 528.938 1068.36 528.938 1069.3V1083.58C528.938 1084.53 528.49 1085 527.594 1085ZM533.506 1085.26C533.01 1085.26 532.578 1085.09 532.21 1084.74C531.858 1084.38 531.682 1083.96 531.682 1083.46C531.682 1082.95 531.858 1082.52 532.21 1082.17C532.578 1081.82 533.01 1081.64 533.506 1081.64C534.002 1081.64 534.426 1081.82 534.778 1082.17C535.146 1082.52 535.33 1082.95 535.33 1083.46C535.33 1083.96 535.146 1084.38 534.778 1084.74C534.426 1085.09 534.002 1085.26 533.506 1085.26ZM541.854 1085.17C540.606 1085.22 539.574 1084.94 538.758 1084.35C537.958 1083.76 537.558 1082.9 537.558 1081.78C537.558 1080.97 537.806 1080.27 538.302 1079.7C538.798 1079.12 539.438 1078.67 540.222 1078.35C541.006 1078.02 541.814 1077.84 542.646 1077.82C543.062 1077.79 543.454 1077.82 543.822 1077.92C544.19 1078.02 544.518 1078.15 544.806 1078.33V1077.32C544.806 1076.57 544.646 1076.08 544.326 1075.86C544.006 1075.63 543.534 1075.52 542.91 1075.52C542.462 1075.52 541.99 1075.58 541.494 1075.69C541.014 1075.8 540.542 1075.95 540.078 1076.14C539.662 1076.32 539.302 1076.38 538.998 1076.34C538.71 1076.29 538.47 1076.1 538.278 1075.76C538.086 1075.42 538.038 1075.1 538.134 1074.8C538.246 1074.48 538.518 1074.23 538.95 1074.06C539.526 1073.78 540.15 1073.57 540.822 1073.41C541.51 1073.25 542.206 1073.17 542.91 1073.17C544.398 1073.17 545.518 1073.47 546.27 1074.08C547.022 1074.67 547.398 1075.75 547.398 1077.32V1082.62C547.398 1082.78 547.414 1082.91 547.446 1083.01C547.494 1083.1 547.534 1083.18 547.566 1083.22C547.71 1083.43 547.862 1083.55 548.022 1083.58C548.198 1083.62 548.35 1083.64 548.478 1083.66C548.606 1083.66 548.67 1083.73 548.67 1083.87C548.67 1084.16 548.59 1084.41 548.43 1084.62C548.286 1084.82 548.038 1084.97 547.686 1085.05C547.318 1085.13 546.958 1085.17 546.606 1085.17C546.11 1085.17 545.726 1085.09 545.454 1084.93C545.198 1084.75 545.014 1084.46 544.902 1084.06C544.502 1084.4 544.038 1084.66 543.51 1084.86C542.982 1085.03 542.43 1085.14 541.854 1085.17ZM541.806 1082.82C542.702 1082.78 543.438 1082.61 544.014 1082.29C544.606 1081.97 544.886 1081.51 544.854 1080.92C544.838 1080.54 544.638 1080.27 544.254 1080.13C543.886 1079.98 543.422 1079.93 542.862 1079.96C542.078 1079.98 541.43 1080.18 540.918 1080.56C540.406 1080.93 540.158 1081.34 540.174 1081.81C540.206 1082.53 540.75 1082.86 541.806 1082.82ZM552.25 1089.73C551.338 1089.73 550.882 1089.26 550.882 1088.31V1074.87C550.882 1073.93 551.282 1073.46 552.082 1073.46C552.85 1073.46 553.258 1073.62 553.306 1073.96L553.378 1074.73C554.194 1073.69 555.266 1073.17 556.594 1073.17C557.666 1073.17 558.618 1073.41 559.45 1073.89C560.298 1074.37 560.962 1075.06 561.442 1075.98C561.922 1076.87 562.162 1077.95 562.162 1079.22C562.162 1080.48 561.922 1081.57 561.442 1082.48C560.962 1083.38 560.298 1084.06 559.45 1084.54C558.618 1085.02 557.666 1085.26 556.594 1085.26C556.002 1085.26 555.45 1085.15 554.938 1084.93C554.426 1084.69 553.978 1084.36 553.594 1083.94V1088.31C553.594 1088.76 553.474 1089.1 553.234 1089.34C553.01 1089.6 552.682 1089.73 552.25 1089.73ZM556.498 1082.82C557.346 1082.82 558.05 1082.5 558.61 1081.88C559.17 1081.26 559.45 1080.37 559.45 1079.22C559.45 1078.06 559.17 1077.18 558.61 1076.55C558.05 1075.93 557.346 1075.62 556.498 1075.62C555.65 1075.62 554.946 1075.93 554.386 1076.55C553.826 1077.18 553.546 1078.06 553.546 1079.22C553.546 1080.37 553.826 1081.26 554.386 1081.88C554.946 1082.5 555.65 1082.82 556.498 1082.82ZM565.867 1089.73C564.955 1089.73 564.499 1089.26 564.499 1088.31V1074.87C564.499 1073.93 564.899 1073.46 565.699 1073.46C566.467 1073.46 566.875 1073.62 566.923 1073.96L566.995 1074.73C567.811 1073.69 568.883 1073.17 570.211 1073.17C571.283 1073.17 572.235 1073.41 573.067 1073.89C573.915 1074.37 574.579 1075.06 575.059 1075.98C575.539 1076.87 575.779 1077.95 575.779 1079.22C575.779 1080.48 575.539 1081.57 575.059 1082.48C574.579 1083.38 573.915 1084.06 573.067 1084.54C572.235 1085.02 571.283 1085.26 570.211 1085.26C569.619 1085.26 569.067 1085.15 568.555 1084.93C568.043 1084.69 567.595 1084.36 567.211 1083.94V1088.31C567.211 1088.76 567.091 1089.1 566.851 1089.34C566.627 1089.6 566.299 1089.73 565.867 1089.73ZM570.115 1082.82C570.963 1082.82 571.667 1082.5 572.227 1081.88C572.787 1081.26 573.067 1080.37 573.067 1079.22C573.067 1078.06 572.787 1077.18 572.227 1076.55C571.667 1075.93 570.963 1075.62 570.115 1075.62C569.267 1075.62 568.563 1075.93 568.003 1076.55C567.443 1077.18 567.163 1078.06 567.163 1079.22C567.163 1080.37 567.443 1081.26 568.003 1081.88C568.563 1082.5 569.267 1082.82 570.115 1082.82Z" fill="#E9E5E2"/>
<rect x="84.5" y="914.5" width="51" height="14" fill="#E9E5E2" stroke="#E9E5E2" stroke-width="5"/>
<rect x="84.5" y="983.5" width="51" height="14" fill="#E9E5E2" stroke="#E9E5E2" stroke-width="5"/>
<rect x="159.5" y="983.5" width="51" height="14" fill="#E9E5E2" stroke="#E9E5E2" stroke-width="5"/>
<rect x="159.5" y="914.5" width="51" height="14" fill="#E9E5E2" stroke="#E9E5E2" stroke-width="5"/>
<line x1="88.5" y1="955.5" x2="206.5" y2="955.5" stroke="#E9E5E2" stroke-linecap="round" stroke-dasharray="2 3"/>
<rect x="-2.5" y="2.5" width="7" height="103" transform="matrix(-1 0 0 1 245 860)" fill="#E9E5E2" stroke="#E9E5E2" stroke-width="5"/>
<rect x="-2.5" y="2.5" width="7" height="103" transform="matrix(-1 0 0 1 245 705)" fill="#E9E5E2" stroke="#E9E5E2" stroke-width="5"/>
<rect x="94.5" y="708.5" width="32" height="43" fill="#E9E5E2" stroke="#E9E5E2" stroke-width="5"/>
<rect x="166.5" y="708.5" width="31" height="43" fill="#E9E5E2" stroke="#E9E5E2" stroke-width="5"/>
<rect x="166.5" y="795.5" width="31" height="59" fill="#E9E5E2" stroke="#E9E5E2" stroke-width="5"/>
<rect x="94.5" y="795.5" width="32" height="59" fill="#E9E5E2" stroke="#E9E5E2" stroke-width="5"/>
<rect x="421.5" y="864.5" width="19" height="19" fill="#E9E5E2" stroke="#E9E5E2" stroke-width="5"/>
<rect x="421.5" y="904.5" width="19" height="19" fill="#E9E5E2" stroke="#E9E5E2" stroke-width="5"/>
<rect x="421.5" y="944.5" width="19" height="19" fill="#E9E5E2" stroke="#E9E5E2" stroke-width="5"/>
<rect x="421.5" y="984.5" width="19" height="19" fill="#E9E5E2" stroke="#E9E5E2" stroke-width="5"/>
<path d="M497.5 984.5V1003.5H478.5V984.5H497.5Z" fill="#E9E5E2" stroke="#E9E5E2" stroke-width="5"/>
<rect x="478.5" y="944.5" width="19" height="19" fill="#E9E5E2" stroke="#E9E5E2" stroke-width="5"/>
<rect x="478.5" y="904.5" width="19" height="19" fill="#E9E5E2" stroke="#E9E5E2" stroke-width="5"/>
<rect x="478.5" y="864.5" width="19" height="19" fill="#E9E5E2" stroke="#E9E5E2" stroke-width="5"/>
<circle cx="460" cy="827" r="13.5" fill="#E9E5E2" stroke="#E9E5E2"/>
<circle cx="513" cy="827" r="13.5" fill="#E9E5E2" stroke="#E9E5E2"/>
<circle cx="407" cy="827" r="13.5" fill="#E9E5E2" stroke="#E9E5E2"/>
<line x1="459.5" y1="866.5" x2="459.5" y2="1002.5" stroke="#E9E5E2" stroke-linecap="round" stroke-dasharray="2 3"/>
<rect x="114.5" y="417.5" width="125" height="25" fill="#E9E5E2" stroke="#E9E5E2" stroke-width="5"/>
<rect x="114.5" y="347.5" width="125" height="25" fill="#E9E5E2" stroke="#E9E5E2" stroke-width="5"/>
<rect x="114.5" y="277.5" width="125" height="25" fill="#E9E5E2" stroke="#E9E5E2" stroke-width="5"/>
<line x1="178" y1="345" x2="178" y2="375" stroke="black" stroke-width="2" stroke-dasharray="2 3"/>
<line x1="178" y1="415" x2="178" y2="445" stroke="black" stroke-width="2" stroke-dasharray="2 3"/>
<line x1="178" y1="275" x2="178" y2="305" stroke="black" stroke-width="2" stroke-dasharray="2 3"/>
<rect x="240.5" y="187.5" width="57" height="34" fill="#E9E5E2" stroke="#E9E5E2" stroke-width="5"/>
<rect x="240.5" y="127.5" width="57" height="34" fill="#E9E5E2" stroke="#E9E5E2" stroke-width="5"/>
<rect x="240.5" y="68.5" width="57" height="34" fill="#E9E5E2" stroke="#E9E5E2" stroke-width="5"/>
<line x1="238" y1="174.5" x2="301" y2="174.5" stroke="#E9E5E2"/>
<line x1="238" y1="114.5" x2="301" y2="114.5" stroke="#E9E5E2"/>
<rect x="66.5" y="327.5" width="19" height="15" fill="#E9E5E2" stroke="#E9E5E2" stroke-width="5"/>
<rect x="66.5" y="354.348" width="19" height="15.1433" fill="#E9E5E2" stroke="#E9E5E2" stroke-width="5"/>
<rect x="66.5" y="380.852" width="19" height="15.1433" fill="#E9E5E2" stroke="#E9E5E2" stroke-width="5"/>
<rect x="66.5" y="407.357" width="19" height="15.1433" fill="#E9E5E2" stroke="#E9E5E2" stroke-width="5"/>
<rect x="66.5" y="56.5" width="19" height="15.3194" fill="#E9E5E2" stroke="#E9E5E2" stroke-width="5"/>
<rect x="66.5" y="83.2361" width="19" height="15.3194" fill="#E9E5E2" stroke="#E9E5E2" stroke-width="5"/>
<rect x="66.5" y="109.972" width="19" height="14.25" fill="#E9E5E2" stroke="#E9E5E2" stroke-width="5"/>
<rect x="66.5" y="134.569" width="19" height="16.3889" fill="#E9E5E2" stroke="#E9E5E2" stroke-width="5"/>
<rect x="66.5" y="161.306" width="19" height="16.3889" fill="#E9E5E2" stroke="#E9E5E2" stroke-width="5"/>
<rect x="66.5" y="188.042" width="19" height="15.3194" fill="#E9E5E2" stroke="#E9E5E2" stroke-width="5"/>
<rect x="66.5" y="214.778" width="19" height="15.3194" fill="#E9E5E2" stroke="#E9E5E2" stroke-width="5"/>
<rect x="66.5" y="240.444" width="19" height="15.3194" fill="#E9E5E2" stroke="#E9E5E2" stroke-width="5"/>
<rect x="66.5" y="267.181" width="19" height="15.3194" fill="#E9E5E2" stroke="#E9E5E2" stroke-width="5"/>
<mask id="mask0_1_4" style="mask-type:alpha" maskUnits="userSpaceOnUse" x="51" y="283" width="46" height="43">
<rect x="53.5" y="286.497" width="41" height="36.3467" fill="#F4ECEC" stroke="#F4ECEC" stroke-width="5"/>
</mask>
<g mask="url(#mask0_1_4)">
<rect x="0.686162" width="2.09158" height="98.9609" transform="matrix(0.686162 -0.727449 0.686162 0.727449 33.2153 304.706)" fill="#E9E5E2" stroke="#E9E5E2"/>
<rect x="0.686162" width="2.09158" height="98.9609" transform="matrix(0.686162 -0.727449 0.686162 0.727449 50.1859 286.714)" fill="#E9E5E2" stroke="#E9E5E2"/>
<rect x="0.686162" width="2.09158" height="98.9609" transform="matrix(0.686162 -0.727449 0.686162 0.727449 54.4285 282.216)" fill="#E9E5E2" stroke="#E9E5E2"/>
<rect x="0.686162" width="2.09158" height="98.9609" transform="matrix(0.686162 -0.727449 0.686162 0.727449 58.6712 277.718)" fill="#E9E5E2" stroke="#E9E5E2"/>
<rect x="0.686162" width="2.09158" height="98.9609" transform="matrix(0.686162 -0.727449 0.686162 0.727449 62.9138 273.22)" fill="#E9E5E2" stroke="#E9E5E2"/>
<rect x="0.686162" width="2.09158" height="98.9609" transform="matrix(0.686162 -0.727449 0.686162 0.727449 67.1565 268.722)" fill="#E9E5E2" stroke="#E9E5E2"/>
<rect x="0.686162" width="2.09158" height="98.9609" transform="matrix(0.686162 -0.727449 0.686162 0.727449 41.7006 295.71)" fill="#E9E5E2" stroke="#E9E5E2"/>
<rect x="0.686162" width="2.09158" height="98.9609" transform="matrix(0.686162 -0.727449 0.686162 0.727449 45.9433 291.212)" fill="#E9E5E2" stroke="#E9E5E2"/>
<rect x="0.686162" width="2.09158" height="98.9609" transform="matrix(0.686162 -0.727449 0.686162 0.727449 37.458 300.208)" fill="#E9E5E2" stroke="#E9E5E2"/>
</g>
<rect x="52.5" y="285.497" width="43" height="38.3467" stroke="#E9E5E2" stroke-width="3"/>
<mask id="mask1_1_4" style="mask-type:alpha" maskUnits="userSpaceOnUse" x="257" y="242" width="46" height="39">
<rect x="259.5" y="244.5" width="41" height="34" fill="#F4ECEC" stroke="#F4ECEC" stroke-width="5"/>
</mask>
<g mask="url(#mask1_1_4)">
<rect x="239.707" y="261.062" width="2" height="96" transform="rotate(-45 239.707 261.062)" fill="#E9E5E2" stroke="#E9E5E2"/>
<rect x="256.678" y="244.092" width="2" height="96" transform="rotate(-45 256.678 244.092)" fill="#E9E5E2" stroke="#E9E5E2"/>
<rect x="260.92" y="239.849" width="2" height="96" transform="rotate(-45 260.92 239.849)" fill="#E9E5E2" stroke="#E9E5E2"/>
<rect x="265.163" y="235.607" width="2" height="96" transform="rotate(-45 265.163 235.607)" fill="#E9E5E2" stroke="#E9E5E2"/>
<rect x="269.406" y="231.364" width="2" height="96" transform="rotate(-45 269.406 231.364)" fill="#E9E5E2" stroke="#E9E5E2"/>
<rect x="273.648" y="227.121" width="2" height="96" transform="rotate(-45 273.648 227.121)" fill="#E9E5E2" stroke="#E9E5E2"/>
<rect x="248.192" y="252.577" width="2" height="96" transform="rotate(-45 248.192 252.577)" fill="#E9E5E2" stroke="#E9E5E2"/>
<rect x="252.435" y="248.335" width="2" height="96" transform="rotate(-45 252.435 248.335)" fill="#E9E5E2" stroke="#E9E5E2"/>
<rect x="243.95" y="256.82" width="2" height="96" transform="rotate(-45 243.95 256.82)" fill="#E9E5E2" stroke="#E9E5E2"/>
</g>
<rect x="258.5" y="243.5" width="43" height="36" stroke="#E9E5E2" stroke-width="3"/>
<rect x="2.5" y="-2.5" width="160" height="145" transform="matrix(1 0 0 -1 385 795)" stroke="#E9E5E2" stroke-width="5"/>
<path d="M454.902 735C454.038 735 453.526 734.584 453.366 733.752L450.246 719.76C450.134 719.248 450.174 718.864 450.366 718.608C450.574 718.336 450.894 718.2 451.326 718.2C451.838 718.2 452.222 718.296 452.478 718.488C452.75 718.68 452.926 719.008 453.006 719.472L455.142 729.984L457.902 719.424C458.11 718.608 458.614 718.2 459.414 718.2C460.23 718.2 460.742 718.608 460.95 719.424L463.71 729.984L465.846 719.472C465.99 718.624 466.502 718.2 467.382 718.2C467.878 718.2 468.238 718.336 468.462 718.608C468.686 718.88 468.742 719.264 468.63 719.76L465.51 733.752C465.35 734.584 464.83 735 463.95 735C463.102 735 462.574 734.592 462.366 733.776L459.414 722.592L456.486 733.776C456.278 734.592 455.75 735 454.902 735ZM478.181 735.384C476.661 735.384 475.301 735.024 474.101 734.304C472.917 733.584 471.989 732.568 471.317 731.256C470.645 729.928 470.309 728.376 470.309 726.6C470.309 724.808 470.645 723.256 471.317 721.944C471.989 720.616 472.917 719.592 474.101 718.872C475.301 718.136 476.661 717.768 478.181 717.768C479.317 717.768 480.357 717.976 481.301 718.392C482.261 718.808 483.093 719.392 483.797 720.144C484.117 720.496 484.221 720.856 484.109 721.224C483.997 721.576 483.781 721.848 483.461 722.04L483.341 722.112C483.133 722.24 482.837 722.288 482.453 722.256C482.069 722.224 481.717 722.056 481.397 721.752C480.981 721.336 480.501 721.024 479.957 720.816C479.429 720.592 478.837 720.48 478.181 720.48C477.189 720.48 476.317 720.736 475.565 721.248C474.813 721.744 474.229 722.456 473.813 723.384C473.413 724.296 473.213 725.368 473.213 726.6C473.213 727.816 473.413 728.888 473.813 729.816C474.229 730.728 474.813 731.44 475.565 731.952C476.317 732.448 477.189 732.696 478.181 732.696C479.445 732.696 480.517 732.272 481.397 731.424C481.717 731.12 482.045 730.944 482.381 730.896C482.717 730.848 483.037 730.896 483.341 731.04L483.389 731.088C483.725 731.248 483.957 731.52 484.085 731.904C484.229 732.272 484.149 732.632 483.845 732.984C483.141 733.752 482.309 734.344 481.349 734.76C480.389 735.176 479.333 735.384 478.181 735.384Z" fill="#E9E5E2"/>
<rect x="377.5" y="1029.5" width="165" height="18" fill="#E9E5E2" stroke="#E9E5E2" stroke-width="5"/>
<mask id="mask2_1_4" style="mask-type:alpha" maskUnits="userSpaceOnUse" x="92" y="754" width="108" height="39">
<rect x="94.5" y="756.5" width="103" height="34" fill="#F4ECEC" stroke="#F4ECEC" stroke-width="5"/>
</mask>
<g mask="url(#mask2_1_4)">
<rect x="-105.107" y="695.007" width="3" height="394" transform="rotate(-45 -105.107 695.007)" fill="#E9E5E2"/>
<rect x="-28.7394" y="618.639" width="3" height="394" transform="rotate(-45 -28.7394 618.639)" fill="#E9E5E2"/>
<rect x="-66.9231" y="656.823" width="3" height="394" transform="rotate(-45 -66.9231 656.823)" fill="#E9E5E2"/>
<rect x="9.44439" y="580.456" width="3" height="394" transform="rotate(-45 9.44439 580.456)" fill="#E9E5E2"/>
<rect x="-88.1363" y="678.036" width="3" height="394" transform="rotate(-45 -88.1363 678.036)" fill="#E9E5E2"/>
<rect x="-11.7688" y="601.669" width="3" height="394" transform="rotate(-45 -11.7688 601.669)" fill="#E9E5E2"/>
<rect x="-49.9526" y="639.852" width="3" height="394" transform="rotate(-45 -49.9526 639.852)" fill="#E9E5E2"/>
<rect x="26.415" y="563.485" width="3" height="394" transform="rotate(-45 26.415 563.485)" fill="#E9E5E2"/>
<rect x="-83.8937" y="673.794" width="3" height="394" transform="rotate(-45 -83.8937 673.794)" fill="#E9E5E2"/>
<rect x="-7.52617" y="597.426" width="3" height="394" transform="rotate(-45 -7.52617 597.426)" fill="#E9E5E2"/>
<rect x="-45.7099" y="635.61" width="3" height="394" transform="rotate(-45 -45.7099 635.61)" fill="#E9E5E2"/>
<rect x="30.6576" y="559.242" width="3" height="394" transform="rotate(-45 30.6576 559.242)" fill="#E9E5E2"/>
<rect x="-79.6511" y="669.551" width="3" height="394" transform="rotate(-45 -79.6511 669.551)" fill="#E9E5E2"/>
<rect x="-3.28353" y="593.183" width="3" height="394" transform="rotate(-45 -3.28353 593.183)" fill="#E9E5E2"/>
<rect x="-41.4673" y="631.367" width="3" height="394" transform="rotate(-45 -41.4673 631.367)" fill="#E9E5E2"/>
<rect x="34.9002" y="555" width="3" height="394" transform="rotate(-45 34.9002 555)" fill="#E9E5E2"/>
<rect x="-75.4084" y="665.308" width="3" height="394" transform="rotate(-45 -75.4084 665.308)" fill="#E9E5E2"/>
<rect x="0.959112" y="588.941" width="3" height="394" transform="rotate(-45 0.959112 588.941)" fill="#E9E5E2"/>
<rect x="-37.2247" y="627.125" width="3" height="394" transform="rotate(-45 -37.2247 627.125)" fill="#E9E5E2"/>
<rect x="39.1429" y="550.757" width="3" height="394" transform="rotate(-45 39.1429 550.757)" fill="#E9E5E2"/>
<rect x="-71.1658" y="661.066" width="3" height="394" transform="rotate(-45 -71.1658 661.066)" fill="#E9E5E2"/>
<rect x="5.20175" y="584.698" width="3" height="394" transform="rotate(-45 5.20175 584.698)" fill="#E9E5E2"/>
<rect x="-32.982" y="622.882" width="3" height="394" transform="rotate(-45 -32.982 622.882)" fill="#E9E5E2"/>
<rect x="43.3855" y="546.514" width="3" height="394" transform="rotate(-45 43.3855 546.514)" fill="#E9E5E2"/>
<rect x="-96.6216" y="686.522" width="3" height="394" transform="rotate(-45 -96.6216 686.522)" fill="#E9E5E2"/>
<rect x="-20.2541" y="610.154" width="3" height="394" transform="rotate(-45 -20.2541 610.154)" fill="#E9E5E2"/>
<rect x="-58.4379" y="648.338" width="3" height="394" transform="rotate(-45 -58.4379 648.338)" fill="#E9E5E2"/>
<rect x="17.9297" y="571.97" width="3" height="394" transform="rotate(-45 17.9297 571.97)" fill="#E9E5E2"/>
<rect x="-92.379" y="682.279" width="3" height="394" transform="rotate(-45 -92.379 682.279)" fill="#E9E5E2"/>
<rect x="-16.0114" y="605.911" width="3" height="394" transform="rotate(-45 -16.0114 605.911)" fill="#E9E5E2"/>
<rect x="-54.1952" y="644.095" width="3" height="394" transform="rotate(-45 -54.1952 644.095)" fill="#E9E5E2"/>
<rect x="22.1723" y="567.728" width="3" height="394" transform="rotate(-45 22.1723 567.728)" fill="#E9E5E2"/>
<rect x="-100.864" y="690.764" width="3" height="394" transform="rotate(-45 -100.864 690.764)" fill="#E9E5E2"/>
<rect x="-24.4967" y="614.397" width="3" height="394" transform="rotate(-45 -24.4967 614.397)" fill="#E9E5E2"/>
<rect x="-62.6805" y="652.58" width="3" height="394" transform="rotate(-45 -62.6805 652.58)" fill="#E9E5E2"/>
<rect x="13.687" y="576.213" width="3" height="394" transform="rotate(-45 13.687 576.213)" fill="#E9E5E2"/>
</g>
<rect x="93.5" y="755.5" width="105" height="36" stroke="#E9E5E2" stroke-width="3"/>
<mask id="mask3_1_4" style="mask-type:alpha" maskUnits="userSpaceOnUse" x="231" y="494" width="37" height="39">
<rect x="233.5" y="496.5" width="32" height="34" fill="#F4ECEC" stroke="#F4ECEC" stroke-width="5"/>
</mask>
<g mask="url(#mask3_1_4)">
<rect x="213.707" y="513.062" width="2" height="49" transform="rotate(-45 213.707 513.062)" fill="#E9E5E2" stroke="#E9E5E2"/>
<rect x="230.678" y="496.092" width="2" height="49" transform="rotate(-45 230.678 496.092)" fill="#E9E5E2" stroke="#E9E5E2"/>
<rect x="234.92" y="491.849" width="2" height="49" transform="rotate(-45 234.92 491.849)" fill="#E9E5E2" stroke="#E9E5E2"/>
<rect x="239.163" y="487.607" width="2" height="49" transform="rotate(-45 239.163 487.607)" fill="#E9E5E2" stroke="#E9E5E2"/>
<rect x="243.406" y="483.364" width="2" height="49" transform="rotate(-45 243.406 483.364)" fill="#E9E5E2" stroke="#E9E5E2"/>
<rect x="247.648" y="479.121" width="2" height="49" transform="rotate(-45 247.648 479.121)" fill="#E9E5E2" stroke="#E9E5E2"/>
<rect x="222.192" y="504.577" width="2" height="49" transform="rotate(-45 222.192 504.577)" fill="#E9E5E2" stroke="#E9E5E2"/>
<rect x="226.435" y="500.335" width="2" height="49" transform="rotate(-45 226.435 500.335)" fill="#E9E5E2" stroke="#E9E5E2"/>
<rect x="217.95" y="508.82" width="2" height="49" transform="rotate(-45 217.95 508.82)" fill="#E9E5E2" stroke="#E9E5E2"/>
</g>
<rect x="232.5" y="495.5" width="34" height="36" stroke="#E9E5E2" stroke-width="3"/>
<mask id="mask4_1_4" style="mask-type:alpha" maskUnits="userSpaceOnUse" x="420" y="495" width="130" height="160">
<rect x="422.5" y="497.5" width="125" height="155" fill="#F4ECEC" stroke="#F4ECEC" stroke-width="5"/>
</mask>
<g mask="url(#mask4_1_4)">
<rect x="0.6981" width="11.1548" height="257" transform="matrix(0.6981 -0.716 0.6981 0.716 327.211 578.448)" fill="#E9E5E2" stroke="#E9E5E2"/>
<rect x="0.6981" width="11.1548" height="257" transform="matrix(0.6981 -0.716 0.6981 0.716 395.093 508.825)" fill="#E9E5E2" stroke="#E9E5E2"/>
<rect x="0.6981" width="11.1548" height="257" transform="matrix(0.6981 -0.716 0.6981 0.716 412.064 491.42)" fill="#E9E5E2" stroke="#E9E5E2"/>
<rect x="0.6981" width="11.1548" height="257" transform="matrix(0.6981 -0.716 0.6981 0.716 429.034 474.014)" fill="#E9E5E2" stroke="#E9E5E2"/>
<rect x="0.6981" width="11.1548" height="257" transform="matrix(0.6981 -0.716 0.6981 0.716 446.005 456.608)" fill="#E9E5E2" stroke="#E9E5E2"/>
<rect x="0.6981" width="11.1548" height="257" transform="matrix(0.6981 -0.716 0.6981 0.716 462.975 439.203)" fill="#E9E5E2" stroke="#E9E5E2"/>
<rect x="0.6981" width="11.1548" height="257" transform="matrix(0.6981 -0.716 0.6981 0.716 361.152 543.637)" fill="#E9E5E2" stroke="#E9E5E2"/>
<rect x="0.6981" width="11.1548" height="257" transform="matrix(0.6981 -0.716 0.6981 0.716 378.123 526.231)" fill="#E9E5E2" stroke="#E9E5E2"/>
<rect x="0.6981" width="11.1548" height="257" transform="matrix(0.6981 -0.716 0.6981 0.716 344.181 561.043)" fill="#E9E5E2" stroke="#E9E5E2"/>
</g>
<rect x="422.5" y="497.5" width="125" height="155" stroke="#E9E5E2" stroke-width="5"/>
<circle cx="133" cy="91" r="13.5" fill="#E9E5E2" stroke="#E9E5E2"/>
<circle cx="133" cy="189" r="13.5" fill="#E9E5E2" stroke="#E9E5E2"/>
<circle cx="196" cy="189" r="13.5" fill="#E9E5E2" stroke="#E9E5E2"/>
<circle cx="196" cy="238" r="13.5" fill="#E9E5E2" stroke="#E9E5E2"/>
<circle cx="133" cy="238" r="13.5" fill="#E9E5E2" stroke="#E9E5E2"/>
<circle cx="196" cy="91" r="13.5" fill="#E9E5E2" stroke="#E9E5E2"/>
<circle cx="133" cy="140" r="13.5" fill="#E9E5E2" stroke="#E9E5E2"/>
<circle cx="196" cy="140" r="13.5" fill="#E9E5E2" stroke="#E9E5E2"/>
<rect x="350" y="327" width="3" height="61" fill="#E9E5E2"/>
<rect x="439" y="327" width="3" height="33" fill="#E9E5E2"/>
<rect x="390" y="327" width="3" height="61" fill="#E9E5E2"/>
<rect x="400" y="327" width="3" height="61" fill="#E9E5E2"/>
<rect x="410" y="327" width="3" height="61" fill="#E9E5E2"/>
<rect x="420" y="327" width="3" height="61" fill="#E9E5E2"/>
<rect x="430" y="327" width="3" height="61" fill="#E9E5E2"/>
<rect x="370" y="327" width="3" height="61" fill="#E9E5E2"/>
<rect x="459" y="327" width="3" height="33" fill="#E9E5E2"/>
<rect x="380" y="327" width="3" height="61" fill="#E9E5E2"/>
<rect x="360" y="327" width="3" height="61" fill="#E9E5E2"/>
<rect x="449" y="327" width="3" height="33" fill="#E9E5E2"/>
<rect x="350" y="355" width="112" height="5" fill="#E9E5E2"/>
<path d="M330 383H444V388H325V327H491V388H474V383H486V332H330V383Z" fill="#E9E5E2"/>
<rect x="301.25" y="384.25" width="130.5" height="2.5" stroke="#E9E5E2" stroke-width="2.5"/>
<rect x="302.5" y="444.5" width="186" height="53" stroke="#E9E5E2" stroke-width="5"/>
<path d="M326.572 477.952C326.172 477.952 325.828 477.808 325.54 477.52C325.252 477.216 325.108 476.864 325.108 476.464C325.108 476.048 325.252 475.696 325.54 475.408C325.828 475.12 326.172 474.976 326.572 474.976H334.036V469.408H329.428C329.012 469.408 328.66 469.264 328.372 468.976C328.084 468.672 327.94 468.32 327.94 467.92C327.94 467.504 328.084 467.152 328.372 466.864C328.66 466.576 329.012 466.432 329.428 466.432H341.596C342.012 466.432 342.364 466.576 342.652 466.864C342.94 467.152 343.084 467.504 343.084 467.92C343.084 468.32 342.94 468.672 342.652 468.976C342.364 469.264 342.012 469.408 341.596 469.408H337.012V474.976H344.572C344.988 474.976 345.332 475.12 345.604 475.408C345.892 475.696 346.036 476.048 346.036 476.464C346.036 476.864 345.892 477.216 345.604 477.52C345.332 477.808 344.988 477.952 344.572 477.952H326.572ZM358.684 478.576C356.476 479.328 354.732 479.392 353.452 478.768C352.188 478.128 351.556 476.792 351.556 474.76V466.528C351.556 466.112 351.7 465.76 351.988 465.472C352.292 465.184 352.644 465.04 353.044 465.04C353.46 465.04 353.812 465.184 354.1 465.472C354.388 465.76 354.532 466.112 354.532 466.528V474.448C354.532 475.296 354.772 475.832 355.252 476.056C355.732 476.264 356.532 476.192 357.652 475.84C359.22 475.344 360.78 474.672 362.332 473.824C363.9 472.96 365.316 472.048 366.58 471.088C366.916 470.848 367.284 470.752 367.684 470.8C368.1 470.848 368.436 471.04 368.692 471.376C368.932 471.696 369.02 472.064 368.956 472.48C368.908 472.88 368.724 473.208 368.404 473.464C367.572 474.104 366.62 474.744 365.548 475.384C364.492 476.008 363.372 476.6 362.188 477.16C361.02 477.704 359.852 478.176 358.684 478.576ZM391.78 478.288C391.3 477.824 390.692 477.28 389.956 476.656C389.236 476.016 388.468 475.36 387.652 474.688C386.836 474 386.036 473.344 385.252 472.72C384.468 472.096 383.78 471.56 383.188 471.112C382.74 470.776 382.332 470.552 381.964 470.44C381.596 470.312 381.212 470.296 380.812 470.392C380.428 470.472 379.972 470.664 379.444 470.968C378.996 471.224 378.484 471.528 377.908 471.88C377.332 472.232 376.772 472.576 376.228 472.912C375.7 473.248 375.268 473.52 374.932 473.728C374.58 473.936 374.204 473.992 373.804 473.896C373.404 473.8 373.092 473.576 372.868 473.224C372.66 472.872 372.604 472.496 372.7 472.096C372.796 471.696 373.02 471.392 373.372 471.184C373.708 470.976 374.156 470.704 374.716 470.368C375.276 470.032 375.86 469.696 376.468 469.36C377.092 469.008 377.628 468.704 378.076 468.448C379.036 467.936 379.868 467.6 380.572 467.44C381.292 467.28 381.98 467.304 382.636 467.512C383.292 467.72 384.028 468.12 384.844 468.712C385.276 469.016 385.796 469.408 386.404 469.888C387.028 470.352 387.684 470.864 388.372 471.424C389.076 471.968 389.772 472.528 390.46 473.104C391.148 473.68 391.788 474.232 392.38 474.76C392.988 475.272 393.5 475.72 393.916 476.104C394.236 476.392 394.396 476.744 394.396 477.16C394.396 477.576 394.244 477.944 393.94 478.264C393.652 478.552 393.292 478.704 392.86 478.72C392.428 478.72 392.068 478.576 391.78 478.288ZM389.884 469C389.708 469.192 389.468 469.288 389.164 469.288C388.876 469.288 388.636 469.184 388.444 468.976C388.332 468.848 388.164 468.68 387.94 468.472C387.732 468.248 387.508 468.024 387.268 467.8C387.044 467.56 386.852 467.36 386.692 467.2C386.548 467.056 386.476 466.864 386.476 466.624C386.476 466.368 386.564 466.136 386.74 465.928C386.9 465.752 387.092 465.656 387.316 465.64C387.556 465.608 387.78 465.664 387.988 465.808C388.26 466 388.596 466.272 388.996 466.624C389.396 466.976 389.708 467.288 389.932 467.56C390.108 467.768 390.196 468.008 390.196 468.28C390.196 468.536 390.092 468.776 389.884 469ZM390.58 466.744C390.452 466.616 390.268 466.456 390.028 466.264C389.804 466.072 389.564 465.872 389.308 465.664C389.068 465.456 388.86 465.28 388.684 465.136C388.524 465.008 388.428 464.816 388.396 464.56C388.38 464.304 388.452 464.072 388.612 463.864C388.74 463.688 388.924 463.576 389.164 463.528C389.404 463.464 389.628 463.496 389.836 463.624C390.14 463.784 390.5 464.024 390.916 464.344C391.332 464.664 391.668 464.944 391.924 465.184C392.132 465.376 392.244 465.608 392.26 465.88C392.276 466.152 392.196 466.4 392.02 466.624C391.86 466.832 391.636 466.952 391.348 466.984C391.06 467.016 390.804 466.936 390.58 466.744ZM400.036 473.464C399.636 473.464 399.284 473.32 398.98 473.032C398.692 472.728 398.548 472.376 398.548 471.976C398.548 471.56 398.692 471.208 398.98 470.92C399.284 470.632 399.636 470.488 400.036 470.488H414.988C415.404 470.488 415.756 470.632 416.044 470.92C416.332 471.208 416.476 471.56 416.476 471.976C416.476 472.376 416.332 472.728 416.044 473.032C415.756 473.32 415.404 473.464 414.988 473.464H400.036ZM425.38 482.032C424.996 482.192 424.612 482.2 424.228 482.056C423.86 481.912 423.588 481.648 423.412 481.264C423.252 480.896 423.244 480.52 423.388 480.136C423.548 479.752 423.812 479.48 424.18 479.32C427.476 477.896 430.188 476.088 432.316 473.896C431.964 473.544 431.628 473.224 431.308 472.936C430.988 472.648 430.716 472.416 430.492 472.24C430.188 471.968 430.004 471.632 429.94 471.232C429.892 470.832 429.996 470.48 430.252 470.176C430.524 469.856 430.86 469.672 431.26 469.624C431.676 469.576 432.036 469.688 432.34 469.96C432.612 470.168 432.9 470.416 433.204 470.704C433.524 470.976 433.86 471.272 434.212 471.592C434.5 471.176 434.772 470.752 435.028 470.32C435.284 469.888 435.524 469.448 435.748 469C436.004 468.472 436.052 468.08 435.892 467.824C435.748 467.552 435.364 467.416 434.74 467.416H431.476C430.676 468.488 429.78 469.52 428.788 470.512C427.796 471.488 426.852 472.304 425.956 472.96C425.62 473.2 425.244 473.288 424.828 473.224C424.428 473.144 424.116 472.936 423.892 472.6C423.652 472.264 423.564 471.896 423.628 471.496C423.708 471.096 423.916 470.776 424.252 470.536C425.18 469.864 426.068 469.104 426.916 468.256C427.78 467.408 428.556 466.52 429.244 465.592C429.932 464.648 430.484 463.736 430.9 462.856C431.076 462.488 431.348 462.232 431.716 462.088C432.1 461.928 432.476 461.928 432.844 462.088C433.212 462.248 433.468 462.528 433.612 462.928C433.772 463.312 433.764 463.688 433.588 464.056C433.556 464.136 433.516 464.224 433.468 464.32C433.436 464.4 433.396 464.48 433.348 464.56H435.196C436.428 464.56 437.372 464.792 438.028 465.256C438.7 465.72 439.076 466.368 439.156 467.2C439.236 468.016 439.012 468.952 438.484 470.008C437.892 471.256 437.156 472.448 436.276 473.584C436.644 473.936 436.98 474.272 437.284 474.592C437.588 474.912 437.844 475.2 438.052 475.456C438.324 475.776 438.436 476.144 438.388 476.56C438.34 476.976 438.148 477.32 437.812 477.592C437.492 477.848 437.124 477.952 436.708 477.904C436.308 477.84 435.972 477.656 435.7 477.352C435.54 477.16 435.34 476.936 435.1 476.68C434.86 476.424 434.604 476.16 434.332 475.888C431.836 478.48 428.852 480.528 425.38 482.032ZM448.036 473.464C447.636 473.464 447.284 473.32 446.98 473.032C446.692 472.728 446.548 472.376 446.548 471.976C446.548 471.56 446.692 471.208 446.98 470.92C447.284 470.632 447.636 470.488 448.036 470.488H462.988C463.404 470.488 463.756 470.632 464.044 470.92C464.332 471.208 464.476 471.56 464.476 471.976C464.476 472.376 464.332 472.728 464.044 473.032C463.756 473.32 463.404 473.464 462.988 473.464H448.036Z" fill="#E9E5E2"/>
<defs>
<filter id="filter0_d_1_4" x="246" y="1012" width="108" height="56" filterUnits="userSpaceOnUse" color-interpolation-filters="sRGB">
<feFlood flood-opacity="0" result="BackgroundImageFix"/>
<feColorMatrix in="SourceAlpha" type="matrix" values="0 0 0 0 0 0 0 0 0 0 0 0 0 0 0 0 0 0 127 0" result="hardAlpha"/>
<feOffset dy="4"/>
<feGaussianBlur stdDeviation="2"/>
<feComposite in2="hardAlpha" operator="out"/>
<feColorMatrix type="matrix" values="0 0 0 0 0 0 0 0 0 0 0 0 0 0 0 0 0 0 0.25 0"/>
<feBlend mode="normal" in2="BackgroundImageFix" result="effect1_dropShadow_1_4"/>
<feBlend mode="normal" in="SourceGraphic" in2="effect1_dropShadow_1_4" result="shape"/>
</filter>
</defs>
</svg>
