<svg width="600" height="1100" viewBox="0 0 600 1100" fill="none" xmlns="http://www.w3.org/2000/svg">
<rect width="600" height="1100" fill="black"/>
<rect x="52.5" y="52.5" width="495" height="995" fill="#EDECF4" fill-opacity="0.02" stroke="#E9E5E2" stroke-width="5"/>
<rect x="302.5" y="52.5" width="245" height="445" fill="#EDECF4" fill-opacity="0.02" stroke="#E9E5E2" stroke-width="5"/>
<rect x="2.5" y="-2.5" width="160" height="145" transform="matrix(1 0 0 -1 385 795)" fill="#EDECF4" fill-opacity="0.02" stroke="#E9E5E2" stroke-width="5"/>
<rect x="52.5" y="502.5" width="145" height="145" fill="#EDECF4" fill-opacity="0.02" stroke="#E9E5E2" stroke-width="5"/>
<path d="M103.424 585.888C103.072 585.888 102.768 585.752 102.512 585.48C102.256 585.224 102.128 584.92 102.128 584.568C102.128 584.2 102.256 583.896 102.512 583.656C102.768 583.4 103.072 583.272 103.424 583.272H111.848V578.832H106.76C106.408 578.832 106.096 578.704 105.824 578.448C105.568 578.192 105.44 577.88 105.44 577.512C105.44 577.144 105.568 576.84 105.824 576.6C106.096 576.344 106.408 576.216 106.76 576.216H111.848V572.496H106.784C106.48 573.04 106.16 573.568 105.824 574.08C105.488 574.576 105.16 575.032 104.84 575.448C104.584 575.784 104.248 576.008 103.832 576.12C103.416 576.216 103.024 576.136 102.656 575.88C102.336 575.672 102.144 575.376 102.08 574.992C102.016 574.608 102.096 574.264 102.32 573.96C102.8 573.352 103.296 572.616 103.808 571.752C104.336 570.888 104.832 570 105.296 569.088C105.76 568.176 106.128 567.344 106.4 566.592C106.56 566.144 106.816 565.856 107.168 565.728C107.536 565.584 107.92 565.576 108.32 565.704C108.688 565.816 108.952 566.048 109.112 566.4C109.288 566.752 109.296 567.136 109.136 567.552C108.848 568.32 108.512 569.112 108.128 569.928H111.848V566.4C111.848 565.936 111.992 565.568 112.28 565.296C112.584 565.024 112.944 564.888 113.36 564.888C113.776 564.888 114.128 565.024 114.416 565.296C114.72 565.568 114.872 565.936 114.872 566.4V569.928H121.664C122.032 569.928 122.336 570.056 122.576 570.312C122.832 570.552 122.96 570.848 122.96 571.2C122.96 571.552 122.832 571.856 122.576 572.112C122.336 572.368 122.032 572.496 121.664 572.496H114.872V576.216H119.84C120.208 576.216 120.52 576.344 120.776 576.6C121.032 576.84 121.16 577.144 121.16 577.512C121.16 577.88 121.032 578.192 120.776 578.448C120.52 578.704 120.208 578.832 119.84 578.832H114.872V583.272H122.528C122.896 583.272 123.2 583.4 123.44 583.656C123.696 583.896 123.824 584.2 123.824 584.568C123.824 584.92 123.696 585.224 123.44 585.48C123.2 585.752 122.896 585.888 122.528 585.888H103.424ZM135.968 586.848C135.584 586.848 135.264 586.744 135.008 586.536C134.752 586.344 134.616 586.064 134.6 585.696C134.584 585.36 134.68 585.072 134.888 584.832C135.112 584.576 135.416 584.432 135.8 584.4C136.232 584.368 136.52 584.296 136.664 584.184C136.824 584.056 136.944 583.792 137.024 583.392C137.072 583.12 137.112 582.776 137.144 582.36C137.176 581.928 137.2 581.488 137.216 581.04C137.248 580.576 137.192 580.264 137.048 580.104C136.92 579.944 136.624 579.856 136.16 579.84C135.984 581.152 135.68 582.32 135.248 583.344C134.832 584.368 134.256 585.328 133.52 586.224C133.296 586.528 132.992 586.712 132.608 586.776C132.24 586.84 131.896 586.752 131.576 586.512C131.288 586.288 131.136 585.992 131.12 585.624C131.12 585.272 131.232 584.968 131.456 584.712C132.064 584.056 132.544 583.328 132.896 582.528C133.248 581.728 133.504 580.832 133.664 579.84H132.608C132.272 579.84 131.984 579.728 131.744 579.504C131.52 579.264 131.408 578.976 131.408 578.64C131.408 578.304 131.52 578.024 131.744 577.8C131.984 577.56 132.272 577.44 132.608 577.44H133.88C133.896 577.264 133.904 577.088 133.904 576.912C133.904 576.72 133.904 576.536 133.904 576.36C133.904 576.264 133.912 576.168 133.928 576.072C133.944 575.976 133.976 575.888 134.024 575.808C133.752 575.728 133.536 575.56 133.376 575.304C133.168 574.984 133.112 574.64 133.208 574.272C133.304 573.888 133.512 573.616 133.832 573.456C134.888 572.96 135.704 572.424 136.28 571.848C136.856 571.272 137.288 570.584 137.576 569.784H134.84C134.52 569.784 134.24 569.664 134 569.424C133.76 569.184 133.64 568.904 133.64 568.584C133.64 568.264 133.76 567.984 134 567.744C134.24 567.504 134.52 567.384 134.84 567.384H138.08C138.112 567.128 138.136 566.872 138.152 566.616C138.168 566.344 138.184 566.064 138.2 565.776C138.232 565.328 138.392 565 138.68 564.792C138.984 564.568 139.328 564.472 139.712 564.504C140.128 564.52 140.448 564.68 140.672 564.984C140.896 565.272 140.992 565.648 140.96 566.112C140.944 566.32 140.92 566.536 140.888 566.76C140.872 566.968 140.848 567.176 140.816 567.384H142.28C143.24 567.384 144 567.488 144.56 567.696C145.12 567.904 145.504 568.272 145.712 568.8C145.936 569.312 146.008 570.032 145.928 570.96C145.848 572.08 145.632 572.952 145.28 573.576C144.928 574.184 144.456 574.608 143.864 574.848C143.272 575.072 142.568 575.184 141.752 575.184C141.352 575.184 141.008 575.08 140.72 574.872C140.448 574.648 140.296 574.328 140.264 573.912C140.248 573.544 140.352 573.224 140.576 572.952C140.816 572.68 141.152 572.536 141.584 572.52C142.176 572.488 142.576 572.384 142.784 572.208C142.992 572.032 143.136 571.648 143.216 571.056C143.296 570.544 143.256 570.208 143.096 570.048C142.936 569.872 142.608 569.784 142.112 569.784H140.336C139.952 571.064 139.4 572.16 138.68 573.072C137.96 573.968 137.024 574.728 135.872 575.352C136.224 575.592 136.4 575.936 136.4 576.384C136.4 576.56 136.392 576.736 136.376 576.912C136.376 577.088 136.376 577.264 136.376 577.44C137.656 577.456 138.528 577.704 138.992 578.184C139.472 578.664 139.696 579.528 139.664 580.776C139.648 581.224 139.616 581.736 139.568 582.312C139.52 582.888 139.456 583.424 139.376 583.92C139.248 584.912 138.92 585.64 138.392 586.104C137.864 586.568 137.056 586.816 135.968 586.848ZM129.536 587.16C129.168 587.16 128.848 587.032 128.576 586.776C128.304 586.52 128.168 586.192 128.168 585.792V572.976H126.752C126.384 572.976 126.064 572.84 125.792 572.568C125.52 572.296 125.384 571.976 125.384 571.608C125.384 571.24 125.52 570.92 125.792 570.648C126.064 570.376 126.384 570.24 126.752 570.24H128.168V566.016C128.168 565.6 128.304 565.272 128.576 565.032C128.848 564.776 129.168 564.648 129.536 564.648C129.92 564.648 130.24 564.776 130.496 565.032C130.768 565.272 130.904 565.6 130.904 566.016V570.24H132.176C132.56 570.24 132.88 570.376 133.136 570.648C133.408 570.92 133.544 571.24 133.544 571.608C133.544 571.976 133.408 572.296 133.136 572.568C132.88 572.84 132.56 572.976 132.176 572.976H130.904V585.792C130.904 586.192 130.768 586.52 130.496 586.776C130.24 587.032 129.92 587.16 129.536 587.16ZM144.032 586.848C143.632 586.848 143.304 586.744 143.048 586.536C142.808 586.344 142.68 586.064 142.664 585.696C142.648 585.36 142.744 585.072 142.952 584.832C143.16 584.576 143.464 584.432 143.864 584.4C144.296 584.368 144.584 584.296 144.728 584.184C144.872 584.056 144.984 583.792 145.064 583.392C145.112 583.12 145.152 582.776 145.184 582.36C145.232 581.928 145.264 581.488 145.28 581.04C145.312 580.56 145.248 580.248 145.088 580.104C144.944 579.944 144.624 579.856 144.128 579.84C143.968 581.152 143.68 582.32 143.264 583.344C142.864 584.368 142.296 585.328 141.56 586.224C141.32 586.512 141.016 586.688 140.648 586.752C140.28 586.832 139.936 586.752 139.616 586.512C139.328 586.288 139.176 585.992 139.16 585.624C139.144 585.272 139.256 584.968 139.496 584.712C140.104 584.056 140.576 583.328 140.912 582.528C141.248 581.728 141.488 580.832 141.632 579.84H140.888C140.552 579.84 140.264 579.728 140.024 579.504C139.8 579.264 139.688 578.976 139.688 578.64C139.688 578.304 139.8 578.024 140.024 577.8C140.264 577.56 140.552 577.44 140.888 577.44H141.824C141.824 577.376 141.824 577.32 141.824 577.272C141.824 577.208 141.824 577.144 141.824 577.08C141.824 576.952 141.824 576.832 141.824 576.72C141.84 576.592 141.84 576.472 141.824 576.36C141.824 575.992 141.944 575.704 142.184 575.496C142.44 575.272 142.736 575.16 143.072 575.16C143.424 575.16 143.72 575.272 143.96 575.496C144.216 575.72 144.344 576.016 144.344 576.384C144.344 576.56 144.336 576.736 144.32 576.912C144.32 577.088 144.32 577.264 144.32 577.44C145.2 577.44 145.888 577.544 146.384 577.752C146.896 577.96 147.248 578.304 147.44 578.784C147.648 579.264 147.736 579.928 147.704 580.776C147.688 581.224 147.656 581.736 147.608 582.312C147.576 582.888 147.52 583.424 147.44 583.92C147.296 584.912 146.96 585.64 146.432 586.104C145.92 586.568 145.12 586.816 144.032 586.848Z" fill="#E9E5E2"/>
<path d="M454.902 735C454.038 735 453.526 734.584 453.366 733.752L450.246 719.76C450.134 719.248 450.174 718.864 450.366 718.608C450.574 718.336 450.894 718.2 451.326 718.2C451.838 718.2 452.222 718.296 452.478 718.488C452.75 718.68 452.926 719.008 453.006 719.472L455.142 729.984L457.902 719.424C458.11 718.608 458.614 718.2 459.414 718.2C460.23 718.2 460.742 718.608 460.95 719.424L463.71 729.984L465.846 719.472C465.99 718.624 466.502 718.2 467.382 718.2C467.878 718.2 468.238 718.336 468.462 718.608C468.686 718.88 468.742 719.264 468.63 719.76L465.51 733.752C465.35 734.584 464.83 735 463.95 735C463.102 735 462.574 734.592 462.366 733.776L459.414 722.592L456.486 733.776C456.278 734.592 455.75 735 454.902 735ZM478.181 735.384C476.661 735.384 475.301 735.024 474.101 734.304C472.917 733.584 471.989 732.568 471.317 731.256C470.645 729.928 470.309 728.376 470.309 726.6C470.309 724.808 470.645 723.256 471.317 721.944C471.989 720.616 472.917 719.592 474.101 718.872C475.301 718.136 476.661 717.768 478.181 717.768C479.317 717.768 480.357 717.976 481.301 718.392C482.261 718.808 483.093 719.392 483.797 720.144C484.117 720.496 484.221 720.856 484.109 721.224C483.997 721.576 483.781 721.848 483.461 722.04L483.341 722.112C483.133 722.24 482.837 722.288 482.453 722.256C482.069 722.224 481.717 722.056 481.397 721.752C480.981 721.336 480.501 721.024 479.957 720.816C479.429 720.592 478.837 720.48 478.181 720.48C477.189 720.48 476.317 720.736 475.565 721.248C474.813 721.744 474.229 722.456 473.813 723.384C473.413 724.296 473.213 725.368 473.213 726.6C473.213 727.816 473.413 728.888 473.813 729.816C474.229 730.728 474.813 731.44 475.565 731.952C476.317 732.448 477.189 732.696 478.181 732.696C479.445 732.696 480.517 732.272 481.397 731.424C481.717 731.12 482.045 730.944 482.381 730.896C482.717 730.848 483.037 730.896 483.341 731.04L483.389 731.088C483.725 731.248 483.957 731.52 484.085 731.904C484.229 732.272 484.149 732.632 483.845 732.984C483.141 733.752 482.309 734.344 481.349 734.76C480.389 735.176 479.333 735.384 478.181 735.384Z" fill="#E9E5E2"/>
<rect x="84.5" y="914.5" width="51" height="14" fill="#E9E5E2" stroke="#E9E5E2" stroke-width="5"/>
<rect x="84.5" y="983.5" width="51" height="14" fill="#E9E5E2" stroke="#E9E5E2" stroke-width="5"/>
<rect x="159.5" y="983.5" width="51" height="14" fill="#E9E5E2" stroke="#E9E5E2" stroke-width="5"/>
<rect x="159.5" y="914.5" width="51" height="14" fill="#E9E5E2" stroke="#E9E5E2" stroke-width="5"/>
<rect x="114.5" y="417.5" width="125" height="25" fill="#E9E5E2" stroke="#E9E5E2" stroke-width="5"/>
<rect x="114.5" y="347.5" width="125" height="25" fill="#E9E5E2" stroke="#E9E5E2" stroke-width="5"/>
<rect x="114.5" y="277.5" width="125" height="25" fill="#E9E5E2" stroke="#E9E5E2" stroke-width="5"/>
<rect x="-2.5" y="2.5" width="7" height="103" transform="matrix(-1 0 0 1 245 860)" fill="#E9E5E2" stroke="#E9E5E2" stroke-width="5"/>
<rect x="-2.5" y="2.5" width="7" height="103" transform="matrix(-1 0 0 1 245 705)" fill="#E9E5E2" stroke="#E9E5E2" stroke-width="5"/>
<rect x="94.5" y="717.5" width="32" height="34" fill="#E9E5E2" stroke="#E9E5E2" stroke-width="5"/>
<rect x="166.5" y="717.5" width="31" height="34" fill="#E9E5E2" stroke="#E9E5E2" stroke-width="5"/>
<rect x="166.5" y="795.5" width="31" height="67" fill="#E9E5E2" stroke="#E9E5E2" stroke-width="5"/>
<rect x="94.5" y="795.5" width="32" height="67" fill="#E9E5E2" stroke="#E9E5E2" stroke-width="5"/>
<rect x="240.5" y="187.5" width="57" height="34" fill="#E9E5E2" stroke="#E9E5E2" stroke-width="5"/>
<rect x="240.5" y="127.5" width="57" height="34" fill="#E9E5E2" stroke="#E9E5E2" stroke-width="5"/>
<rect x="240.5" y="68.5" width="57" height="34" fill="#E9E5E2" stroke="#E9E5E2" stroke-width="5"/>
<line x1="238" y1="174.5" x2="301" y2="174.5" stroke="#E9E5E2"/>
<line x1="238" y1="114.5" x2="301" y2="114.5" stroke="#E9E5E2"/>
<rect x="66.5" y="429.5" width="19" height="18" fill="#E9E5E2" stroke="#E9E5E2" stroke-width="5"/>
<rect x="66.5" y="390.5" width="19" height="18" fill="#E9E5E2" stroke="#E9E5E2" stroke-width="5"/>
<rect x="66.5" y="351.5" width="19" height="18" fill="#E9E5E2" stroke="#E9E5E2" stroke-width="5"/>
<rect x="66.5" y="312.5" width="19" height="18" fill="#E9E5E2" stroke="#E9E5E2" stroke-width="5"/>
<rect x="66.5" y="250.5" width="19" height="18" fill="#E9E5E2" stroke="#E9E5E2" stroke-width="5"/>
<rect x="66.5" y="211.5" width="19" height="18" fill="#E9E5E2" stroke="#E9E5E2" stroke-width="5"/>
<rect x="66.5" y="172.5" width="19" height="18" fill="#E9E5E2" stroke="#E9E5E2" stroke-width="5"/>
<rect x="66.5" y="133.5" width="19" height="18" fill="#E9E5E2" stroke="#E9E5E2" stroke-width="5"/>
<rect x="66.5" y="94.5" width="19" height="18" fill="#E9E5E2" stroke="#E9E5E2" stroke-width="5"/>
<rect x="66.5" y="55.5" width="19" height="18" fill="#E9E5E2" stroke="#E9E5E2" stroke-width="5"/>
<mask id="mask0_1_4" style="mask-type:alpha" maskUnits="userSpaceOnUse" x="51" y="271" width="46" height="39">
<rect x="53.5" y="273.5" width="41" height="34" fill="#F4ECEC" stroke="#F4ECEC" stroke-width="5"/>
</mask>
<g mask="url(#mask0_1_4)">
<rect x="33.7071" y="290.062" width="2" height="96" transform="rotate(-45 33.7071 290.062)" fill="#E9E5E2" stroke="#E9E5E2"/>
<rect x="50.6777" y="273.092" width="2" height="96" transform="rotate(-45 50.6777 273.092)" fill="#E9E5E2" stroke="#E9E5E2"/>
<rect x="54.9203" y="268.849" width="2" height="96" transform="rotate(-45 54.9203 268.849)" fill="#E9E5E2" stroke="#E9E5E2"/>
<rect x="59.163" y="264.607" width="2" height="96" transform="rotate(-45 59.163 264.607)" fill="#E9E5E2" stroke="#E9E5E2"/>
<rect x="63.4056" y="260.364" width="2" height="96" transform="rotate(-45 63.4056 260.364)" fill="#E9E5E2" stroke="#E9E5E2"/>
<rect x="67.6482" y="256.121" width="2" height="96" transform="rotate(-45 67.6482 256.121)" fill="#E9E5E2" stroke="#E9E5E2"/>
<rect x="42.1924" y="281.577" width="2" height="96" transform="rotate(-45 42.1924 281.577)" fill="#E9E5E2" stroke="#E9E5E2"/>
<rect x="46.435" y="277.335" width="2" height="96" transform="rotate(-45 46.435 277.335)" fill="#E9E5E2" stroke="#E9E5E2"/>
<rect x="37.9497" y="285.82" width="2" height="96" transform="rotate(-45 37.9497 285.82)" fill="#E9E5E2" stroke="#E9E5E2"/>
</g>
<rect x="52.5" y="272.5" width="43" height="36" fill="#EDECF4" fill-opacity="0.02" stroke="#E9E5E2" stroke-width="3"/>
<rect x="377.5" y="1029.5" width="165" height="18" fill="#E9E5E2" stroke="#E9E5E2" stroke-width="5"/>
<rect x="416.5" y="862.5" width="32" height="34" fill="#E9E5E2" stroke="#E9E5E2" stroke-width="5"/>
<rect x="416.5" y="917.5" width="32" height="34" fill="#E9E5E2" stroke="#E9E5E2" stroke-width="5"/>
<rect x="416.5" y="972.5" width="32" height="34" fill="#E9E5E2" stroke="#E9E5E2" stroke-width="5"/>
<rect x="488.5" y="972.5" width="32" height="34" fill="#E9E5E2" stroke="#E9E5E2" stroke-width="5"/>
<rect x="488.5" y="917.5" width="32" height="34" fill="#E9E5E2" stroke="#E9E5E2" stroke-width="5"/>
<rect x="488.5" y="862.5" width="32" height="34" fill="#E9E5E2" stroke="#E9E5E2" stroke-width="5"/>
<circle cx="437.5" cy="830.5" r="17" fill="#E9E5E2" stroke="#E9E5E2"/>
<circle cx="499.5" cy="830.5" r="17" fill="#E9E5E2" stroke="#E9E5E2"/>
<mask id="mask1_1_4" style="mask-type:alpha" maskUnits="userSpaceOnUse" x="126" y="754" width="41" height="39">
<rect x="128.5" y="756.5" width="36" height="34" fill="#F4ECEC" stroke="#F4ECEC" stroke-width="5"/>
</mask>
<g mask="url(#mask1_1_4)">
<rect x="0.742393" width="2.16632" height="51.772" transform="matrix(0.742393 -0.669964 0.742393 0.669964 106.245 773.56)" fill="#E9E5E2" stroke="#E9E5E2"/>
<rect x="0.742393" width="2.16632" height="51.772" transform="matrix(0.742393 -0.669964 0.742393 0.669964 125.051 756.589)" fill="#E9E5E2" stroke="#E9E5E2"/>
<rect x="0.742393" width="2.16632" height="51.772" transform="matrix(0.742393 -0.669964 0.742393 0.669964 129.752 752.347)" fill="#E9E5E2" stroke="#E9E5E2"/>
<rect x="0.742393" width="2.16632" height="51.772" transform="matrix(0.742393 -0.669964 0.742393 0.669964 134.453 748.104)" fill="#E9E5E2" stroke="#E9E5E2"/>
<rect x="0.742393" width="2.16632" height="51.772" transform="matrix(0.742393 -0.669964 0.742393 0.669964 139.154 743.861)" fill="#E9E5E2" stroke="#E9E5E2"/>
<rect x="0.742393" width="2.16632" height="51.772" transform="matrix(0.742393 -0.669964 0.742393 0.669964 143.856 739.619)" fill="#E9E5E2" stroke="#E9E5E2"/>
<rect x="0.742393" width="2.16632" height="51.772" transform="matrix(0.742393 -0.669964 0.742393 0.669964 115.648 765.075)" fill="#E9E5E2" stroke="#E9E5E2"/>
<rect x="0.742393" width="2.16632" height="51.772" transform="matrix(0.742393 -0.669964 0.742393 0.669964 120.349 760.832)" fill="#E9E5E2" stroke="#E9E5E2"/>
<rect x="0.742393" width="2.16632" height="51.772" transform="matrix(0.742393 -0.669964 0.742393 0.669964 110.947 769.317)" fill="#E9E5E2" stroke="#E9E5E2"/>
</g>
<rect x="127.5" y="755.5" width="38" height="36" fill="#EDECF4" fill-opacity="0.02" stroke="#E9E5E2" stroke-width="3"/>
<mask id="mask2_1_4" style="mask-type:alpha" maskUnits="userSpaceOnUse" x="231" y="494" width="37" height="39">
<rect x="233.5" y="496.5" width="32" height="34" fill="#F4ECEC" stroke="#F4ECEC" stroke-width="5"/>
</mask>
<g mask="url(#mask2_1_4)">
<rect x="213.707" y="513.062" width="2" height="49" transform="rotate(-45 213.707 513.062)" fill="#E9E5E2" stroke="#E9E5E2"/>
<rect x="230.678" y="496.092" width="2" height="49" transform="rotate(-45 230.678 496.092)" fill="#E9E5E2" stroke="#E9E5E2"/>
<rect x="234.92" y="491.849" width="2" height="49" transform="rotate(-45 234.92 491.849)" fill="#E9E5E2" stroke="#E9E5E2"/>
<rect x="239.163" y="487.607" width="2" height="49" transform="rotate(-45 239.163 487.607)" fill="#E9E5E2" stroke="#E9E5E2"/>
<rect x="243.406" y="483.364" width="2" height="49" transform="rotate(-45 243.406 483.364)" fill="#E9E5E2" stroke="#E9E5E2"/>
<rect x="247.648" y="479.121" width="2" height="49" transform="rotate(-45 247.648 479.121)" fill="#E9E5E2" stroke="#E9E5E2"/>
<rect x="222.192" y="504.577" width="2" height="49" transform="rotate(-45 222.192 504.577)" fill="#E9E5E2" stroke="#E9E5E2"/>
<rect x="226.435" y="500.335" width="2" height="49" transform="rotate(-45 226.435 500.335)" fill="#E9E5E2" stroke="#E9E5E2"/>
<rect x="217.95" y="508.82" width="2" height="49" transform="rotate(-45 217.95 508.82)" fill="#E9E5E2" stroke="#E9E5E2"/>
</g>
<rect x="232.5" y="495.5" width="34" height="36" fill="#EDECF4" fill-opacity="0.02" stroke="#E9E5E2" stroke-width="3"/>
<mask id="mask3_1_4" style="mask-type:alpha" maskUnits="userSpaceOnUse" x="420" y="495" width="130" height="160">
<rect x="422.5" y="497.5" width="125" height="155" fill="#F4ECEC" stroke="#F4ECEC" stroke-width="5"/>
</mask>
<g mask="url(#mask3_1_4)">
<rect x="0.6981" width="11.1548" height="257" transform="matrix(0.6981 -0.716 0.6981 0.716 327.211 578.448)" fill="#E9E5E2" stroke="#E9E5E2"/>
<rect x="0.6981" width="11.1548" height="257" transform="matrix(0.6981 -0.716 0.6981 0.716 395.093 508.825)" fill="#E9E5E2" stroke="#E9E5E2"/>
<rect x="0.6981" width="11.1548" height="257" transform="matrix(0.6981 -0.716 0.6981 0.716 412.064 491.42)" fill="#E9E5E2" stroke="#E9E5E2"/>
<rect x="0.6981" width="11.1548" height="257" transform="matrix(0.6981 -0.716 0.6981 0.716 429.034 474.014)" fill="#E9E5E2" stroke="#E9E5E2"/>
<rect x="0.6981" width="11.1548" height="257" transform="matrix(0.6981 -0.716 0.6981 0.716 446.005 456.608)" fill="#E9E5E2" stroke="#E9E5E2"/>
<rect x="0.6981" width="11.1548" height="257" transform="matrix(0.6981 -0.716 0.6981 0.716 462.975 439.203)" fill="#E9E5E2" stroke="#E9E5E2"/>
<rect x="0.6981" width="11.1548" height="257" transform="matrix(0.6981 -0.716 0.6981 0.716 361.152 543.637)" fill="#E9E5E2" stroke="#E9E5E2"/>
<rect x="0.6981" width="11.1548" height="257" transform="matrix(0.6981 -0.716 0.6981 0.716 378.123 526.231)" fill="#E9E5E2" stroke="#E9E5E2"/>
<rect x="0.6981" width="11.1548" height="257" transform="matrix(0.6981 -0.716 0.6981 0.716 344.181 561.043)" fill="#E9E5E2" stroke="#E9E5E2"/>
</g>
<rect x="422.5" y="497.5" width="125" height="155" fill="#EDECF4" fill-opacity="0.02" stroke="#E9E5E2" stroke-width="5"/>
<circle cx="129.5" cy="107.5" r="17" fill="#E9E5E2" stroke="#E9E5E2"/>
<circle cx="129.5" cy="205.5" r="17" fill="#E9E5E2" stroke="#E9E5E2"/>
<circle cx="199.5" cy="205.5" r="17" fill="#E9E5E2" stroke="#E9E5E2"/>
<circle cx="199.5" cy="107.5" r="17" fill="#E9E5E2" stroke="#E9E5E2"/>
<circle cx="164.5" cy="156.5" r="17" fill="#E9E5E2" stroke="#E9E5E2"/>
</svg>
