<svg width="120" height="120" viewBox="0 0 120 120" fill="none" xmlns="http://www.w3.org/2000/svg">
<g clip-path="url(#clip0_5_124)">
<path d="M57.5438 117.803C57.993 119.915 61.007 119.915 61.4562 117.803L74.1415 58.1661C74.4062 56.9219 73.4573 55.75 72.1853 55.75H46.8147C45.5427 55.75 44.5938 56.9219 44.8585 58.1661L57.5438 117.803Z" fill="#E83421"/>
<ellipse cx="60" cy="32.5" rx="47" ry="26.5" fill="#E83421"/>
<path d="M32.4791 44C31.2631 44 30.6551 43.3707 30.6551 42.112V23.072C30.6551 21.8133 31.2631 21.184 32.4791 21.184C33.6738 21.184 34.2711 21.8133 34.2711 23.072V30.432C34.6125 29.8347 35.1245 29.3227 35.8071 28.896C36.4898 28.448 37.3111 28.224 38.2711 28.224C39.8711 28.224 41.1725 28.736 42.1751 29.76C43.1991 30.784 43.7111 32.288 43.7111 34.272V42.112C43.7111 43.3707 43.1138 44 41.9191 44C40.7031 44 40.0951 43.3707 40.0951 42.112V35.136C40.0951 33.92 39.8498 33.0133 39.3591 32.416C38.8685 31.7973 38.2071 31.488 37.3751 31.488C36.4578 31.488 35.7111 31.808 35.1351 32.448C34.5591 33.0667 34.2711 33.9947 34.2711 35.232V42.112C34.2711 43.3707 33.6738 44 32.4791 44ZM54.3751 44.352C52.1351 44.352 50.3218 43.68 48.9351 42.336C47.5485 40.9707 46.8551 38.9547 46.8551 36.288C46.8551 34.624 47.1645 33.1947 47.7831 32C48.4018 30.784 49.2658 29.856 50.3751 29.216C51.4845 28.5547 52.7538 28.224 54.1831 28.224C55.6125 28.224 56.8285 28.5547 57.8311 29.216C58.8338 29.8773 59.6018 30.7307 60.1351 31.776C60.6685 32.8213 60.9351 33.9093 60.9351 35.04C60.9351 35.8293 60.7751 36.352 60.4551 36.608C60.1351 36.8427 59.6658 36.96 59.0471 36.96H50.4071C50.4925 38.496 50.8978 39.5947 51.6231 40.256C52.3485 40.896 53.2871 41.216 54.4391 41.216C55.7405 41.216 56.7538 40.768 57.4791 39.872C57.9058 39.424 58.3005 39.136 58.6631 39.008C59.0471 38.8587 59.4525 38.9333 59.8791 39.232C60.3058 39.5307 60.5511 39.9147 60.6151 40.384C60.6791 40.8533 60.4871 41.344 60.0391 41.856C59.3138 42.7307 58.4818 43.3707 57.5431 43.776C56.6045 44.16 55.5485 44.352 54.3751 44.352ZM50.5671 34.176H57.3831C57.2125 33.1733 56.8391 32.4053 56.2631 31.872C55.7085 31.3173 54.9938 31.04 54.1191 31.04C53.1805 31.04 52.4018 31.296 51.7831 31.808C51.1858 32.32 50.7805 33.1093 50.5671 34.176ZM66.1666 44C64.9506 44 64.3426 43.3707 64.3426 42.112V30.496C64.3426 29.2373 64.972 28.608 66.2306 28.608C66.6573 28.608 67.0306 28.7147 67.3506 28.928C67.6706 29.12 67.8306 29.4933 67.8306 30.048V30.784C68.2146 30.016 68.812 29.3973 69.6226 28.928C70.4546 28.4587 71.3293 28.224 72.2466 28.224C72.908 28.224 73.4093 28.4053 73.7506 28.768C74.1133 29.1093 74.2946 29.5787 74.2946 30.176C74.2946 30.7307 74.156 31.136 73.8786 31.392C73.6013 31.648 73.2813 31.7547 72.9186 31.712C72.748 31.6907 72.5666 31.68 72.3746 31.68C72.1826 31.6587 71.9693 31.648 71.7346 31.648C70.6893 31.648 69.7933 31.9893 69.0466 32.672C68.3213 33.3547 67.9586 34.3147 67.9586 35.552V42.112C67.9586 43.3707 67.3613 44 66.1666 44ZM83.2814 44.352C81.0414 44.352 79.228 43.68 77.8414 42.336C76.4547 40.9707 75.7614 38.9547 75.7614 36.288C75.7614 34.624 76.0707 33.1947 76.6894 32C77.308 30.784 78.172 29.856 79.2814 29.216C80.3907 28.5547 81.66 28.224 83.0894 28.224C84.5187 28.224 85.7347 28.5547 86.7374 29.216C87.74 29.8773 88.508 30.7307 89.0414 31.776C89.5747 32.8213 89.8414 33.9093 89.8414 35.04C89.8414 35.8293 89.6814 36.352 89.3614 36.608C89.0414 36.8427 88.572 36.96 87.9534 36.96H79.3134C79.3987 38.496 79.804 39.5947 80.5294 40.256C81.2547 40.896 82.1934 41.216 83.3454 41.216C84.6467 41.216 85.66 40.768 86.3854 39.872C86.812 39.424 87.2067 39.136 87.5694 39.008C87.9534 38.8587 88.3587 38.9333 88.7854 39.232C89.212 39.5307 89.4574 39.9147 89.5214 40.384C89.5854 40.8533 89.3934 41.344 88.9454 41.856C88.22 42.7307 87.388 43.3707 86.4494 43.776C85.5107 44.16 84.4547 44.352 83.2814 44.352ZM79.4734 34.176H86.2894C86.1187 33.1733 85.7454 32.4053 85.1694 31.872C84.6147 31.3173 83.9 31.04 83.0254 31.04C82.0867 31.04 81.308 31.296 80.6894 31.808C80.092 32.32 79.6867 33.1093 79.4734 34.176Z" fill="white"/>
</g>
<defs>
<clipPath id="clip0_5_124">
<rect width="120" height="120" fill="white"/>
</clipPath>
</defs>
</svg>
