<svg width="120" height="120" viewBox="0 0 120 120" fill="none" xmlns="http://www.w3.org/2000/svg">
<rect y="37" width="120" height="45" rx="22.5" fill="#E83421"/>
<path d="M32.0364 70.28C31.1964 70.28 30.3937 70.1773 29.6284 69.972C28.8817 69.748 28.191 69.412 27.5564 68.964C27.0897 68.6467 26.8377 68.3013 26.8004 67.928C26.7817 67.536 26.931 67.1627 27.2484 66.808C27.5657 66.472 27.8924 66.3133 28.2284 66.332C28.583 66.3507 28.9937 66.4907 29.4604 66.752C30.207 67.2747 31.1217 67.536 32.2044 67.536C32.9697 67.536 33.5204 67.4333 33.8564 67.228C34.211 67.004 34.3884 66.6027 34.3884 66.024C34.3884 65.744 34.3044 65.52 34.1364 65.352C33.9684 65.1653 33.651 64.9973 33.1844 64.848C32.7364 64.6987 32.0737 64.54 31.1964 64.372C29.8897 64.1107 28.8444 63.6813 28.0604 63.084C27.2764 62.4867 26.8844 61.544 26.8844 60.256C26.8844 59.416 27.1084 58.6973 27.5564 58.1C28.0044 57.484 28.611 57.008 29.3764 56.672C30.1417 56.336 30.991 56.168 31.9244 56.168C33.3804 56.168 34.6124 56.476 35.6204 57.092C36.1244 57.3533 36.4044 57.68 36.4604 58.072C36.535 58.4453 36.4324 58.8093 36.1524 59.164C35.8537 59.5373 35.527 59.724 35.1724 59.724C34.8364 59.724 34.435 59.6213 33.9684 59.416C33.6697 59.248 33.3524 59.1267 33.0164 59.052C32.699 58.9773 32.3537 58.94 31.9804 58.94C31.2897 58.94 30.795 59.0613 30.4964 59.304C30.2164 59.5467 30.0764 59.836 30.0764 60.172C30.0764 60.4147 30.1417 60.62 30.2724 60.788C30.4217 60.956 30.7017 61.1147 31.1124 61.264C31.523 61.4133 32.1204 61.5813 32.9044 61.768C34.3977 62.1227 35.555 62.636 36.3764 63.308C37.1977 63.98 37.6084 64.9227 37.6084 66.136C37.6084 67.4987 37.0857 68.5347 36.0404 69.244C35.0137 69.9347 33.679 70.28 32.0364 70.28ZM41.6946 70C40.6306 70 40.0986 69.4493 40.0986 68.348V51.688C40.0986 50.5867 40.6306 50.036 41.6946 50.036C42.74 50.036 43.2626 50.5867 43.2626 51.688V58.128C43.5613 57.6053 44.0093 57.1573 44.6066 56.784C45.204 56.392 45.9226 56.196 46.7626 56.196C48.1626 56.196 49.3013 56.644 50.1786 57.54C51.0746 58.436 51.5226 59.752 51.5226 61.488V68.348C51.5226 69.4493 51 70 49.9546 70C48.8906 70 48.3586 69.4493 48.3586 68.348V62.244C48.3586 61.18 48.144 60.3867 47.7146 59.864C47.2853 59.3227 46.7066 59.052 45.9786 59.052C45.176 59.052 44.5226 59.332 44.0186 59.892C43.5146 60.4333 43.2626 61.2453 43.2626 62.328V68.348C43.2626 69.4493 42.74 70 41.6946 70ZM59.3976 70.196C57.9416 70.252 56.7376 69.9347 55.7856 69.244C54.8523 68.5533 54.3856 67.5547 54.3856 66.248C54.3856 65.296 54.675 64.484 55.2536 63.812C55.8323 63.14 56.579 62.6173 57.4936 62.244C58.4083 61.852 59.351 61.6467 60.3216 61.628C60.807 61.5907 61.2643 61.628 61.6936 61.74C62.123 61.852 62.5056 62.0107 62.8416 62.216V61.04C62.8416 60.1627 62.655 59.5933 62.2816 59.332C61.9083 59.0707 61.3576 58.94 60.6296 58.94C60.107 58.94 59.5563 59.0053 58.9776 59.136C58.4176 59.2667 57.867 59.444 57.3256 59.668C56.8403 59.8733 56.4203 59.948 56.0656 59.892C55.7296 59.836 55.4496 59.612 55.2256 59.22C55.0016 58.828 54.9456 58.4547 55.0576 58.1C55.1883 57.7267 55.5056 57.4373 56.0096 57.232C56.6816 56.9147 57.4096 56.6627 58.1936 56.476C58.9963 56.2893 59.8083 56.196 60.6296 56.196C62.3656 56.196 63.6723 56.5507 64.5496 57.26C65.427 57.9507 65.8656 59.2107 65.8656 61.04V67.228C65.8656 67.4147 65.8843 67.564 65.9216 67.676C65.9776 67.788 66.0243 67.872 66.0616 67.928C66.2296 68.1707 66.407 68.3107 66.5936 68.348C66.799 68.3853 66.9763 68.4133 67.1256 68.432C67.275 68.432 67.3496 68.516 67.3496 68.684C67.3496 69.02 67.2563 69.3093 67.0696 69.552C66.9016 69.7947 66.6123 69.9627 66.2016 70.056C65.7723 70.1493 65.3523 70.196 64.9416 70.196C64.363 70.196 63.915 70.1027 63.5976 69.916C63.299 69.7107 63.0843 69.3747 62.9536 68.908C62.487 69.3 61.9456 69.608 61.3296 69.832C60.7136 70.0373 60.0696 70.1587 59.3976 70.196ZM59.3416 67.452C60.387 67.4147 61.2456 67.2093 61.9176 66.836C62.6083 66.4627 62.935 65.9307 62.8976 65.24C62.879 64.792 62.6456 64.484 62.1976 64.316C61.7683 64.148 61.227 64.0827 60.5736 64.12C59.659 64.1387 58.903 64.372 58.3056 64.82C57.7083 65.2493 57.419 65.7347 57.4376 66.276C57.475 67.116 58.1096 67.508 59.3416 67.452ZM71.5267 70C70.4627 70 69.9307 69.4493 69.9307 68.348V58.184C69.9307 57.0827 70.4813 56.532 71.5827 56.532C71.956 56.532 72.2827 56.6253 72.5627 56.812C72.8427 56.98 72.9827 57.3067 72.9827 57.792V58.436C73.3187 57.764 73.8413 57.2227 74.5507 56.812C75.2787 56.4013 76.044 56.196 76.8467 56.196C77.4253 56.196 77.864 56.3547 78.1627 56.672C78.48 56.9707 78.6387 57.3813 78.6387 57.904C78.6387 58.3893 78.5173 58.744 78.2747 58.968C78.032 59.192 77.752 59.2853 77.4347 59.248C77.2853 59.2293 77.1267 59.22 76.9587 59.22C76.7907 59.2013 76.604 59.192 76.3987 59.192C75.484 59.192 74.7 59.4907 74.0467 60.088C73.412 60.6853 73.0947 61.5253 73.0947 62.608V68.348C73.0947 69.4493 72.572 70 71.5267 70ZM86.5021 70.308C84.5421 70.308 82.9554 69.72 81.7421 68.544C80.5287 67.3493 79.9221 65.5853 79.9221 63.252C79.9221 61.796 80.1927 60.5453 80.7341 59.5C81.2754 58.436 82.0314 57.624 83.0021 57.064C83.9727 56.4853 85.0834 56.196 86.3341 56.196C87.5847 56.196 88.6487 56.4853 89.5261 57.064C90.4034 57.6427 91.0754 58.3893 91.5421 59.304C92.0087 60.2187 92.2421 61.1707 92.2421 62.16C92.2421 62.8507 92.1021 63.308 91.8221 63.532C91.5421 63.7373 91.1314 63.84 90.5901 63.84H83.0301C83.1047 65.184 83.4594 66.1453 84.0941 66.724C84.7287 67.284 85.5501 67.564 86.5581 67.564C87.6967 67.564 88.5834 67.172 89.2181 66.388C89.5914 65.996 89.9367 65.744 90.2541 65.632C90.5901 65.5013 90.9447 65.5667 91.3181 65.828C91.6914 66.0893 91.9061 66.4253 91.9621 66.836C92.0181 67.2467 91.8501 67.676 91.4581 68.124C90.8234 68.8893 90.0954 69.4493 89.2741 69.804C88.4527 70.14 87.5287 70.308 86.5021 70.308ZM83.1701 61.404H89.1341C88.9847 60.5267 88.6581 59.8547 88.1541 59.388C87.6687 58.9027 87.0434 58.66 86.2781 58.66C85.4567 58.66 84.7754 58.884 84.2341 59.332C83.7114 59.78 83.3567 60.4707 83.1701 61.404Z" fill="#E9E5E2"/>
</svg>
