<svg width="120" height="120" viewBox="0 0 120 120" fill="none" xmlns="http://www.w3.org/2000/svg">
<rect y="37" width="120" height="45" rx="13" fill="#E83421"/>
<path d="M19.532 71.808C18.9987 71.9573 18.4867 71.9147 17.996 71.68C17.5267 71.424 17.2067 71.0293 17.036 70.496C16.8867 69.984 16.9293 69.4827 17.164 68.992C17.42 68.5013 17.804 68.1813 18.316 68.032C19.9587 67.52 21.6333 66.8053 23.34 65.888C25.068 64.9707 26.732 63.9253 28.332 62.752C29.9533 61.5573 31.436 60.2987 32.78 58.976C34.1453 57.6533 35.276 56.3307 36.172 55.008C36.4707 54.56 36.8867 54.2827 37.42 54.176C37.9533 54.0693 38.444 54.176 38.892 54.496C39.3613 54.7947 39.6387 55.2107 39.724 55.744C39.8307 56.2773 39.7347 56.768 39.436 57.216C38.4547 58.6667 37.2067 60.1387 35.692 61.632C34.1773 63.104 32.5133 64.512 30.7 65.856C28.8867 67.1787 27.02 68.3627 25.1 69.408C23.18 70.432 21.324 71.232 19.532 71.808ZM24.108 55.552C23.8093 55.2747 23.3827 54.944 22.828 54.56C22.2947 54.176 21.74 53.8027 21.164 53.44C20.588 53.056 20.0867 52.7573 19.66 52.544C19.1907 52.288 18.8813 51.8933 18.732 51.36C18.5827 50.8267 18.6467 50.3253 18.924 49.856C19.2013 49.3653 19.6067 49.056 20.14 48.928C20.6733 48.8 21.1747 48.864 21.644 49.12C22.1133 49.376 22.6787 49.728 23.34 50.176C24.0227 50.6027 24.684 51.04 25.324 51.488C25.964 51.936 26.4653 52.32 26.828 52.64C27.2333 53.0027 27.436 53.4613 27.436 54.016C27.4573 54.5707 27.2867 55.0507 26.924 55.456C26.54 55.8613 26.0813 56.064 25.548 56.064C25.0147 56.064 24.5347 55.8933 24.108 55.552ZM20.716 61.44C20.4173 61.2053 19.98 60.9173 19.404 60.576C18.8493 60.2133 18.2627 59.8613 17.644 59.52C17.0467 59.1787 16.5347 58.912 16.108 58.72C15.6173 58.4853 15.2867 58.1013 15.116 57.568C14.9453 57.0347 14.9773 56.5333 15.212 56.064C15.468 55.5733 15.852 55.2533 16.364 55.104C16.8973 54.9333 17.3987 54.9653 17.868 55.2C18.38 55.4347 18.9773 55.744 19.66 56.128C20.364 56.512 21.0467 56.9173 21.708 57.344C22.3693 57.7493 22.892 58.1013 23.276 58.4C23.7027 58.7413 23.9373 59.1893 23.98 59.744C24.0227 60.2773 23.8627 60.7573 23.5 61.184C23.1587 61.6107 22.7107 61.8453 22.156 61.888C21.6227 61.9307 21.1427 61.7813 20.716 61.44ZM50.572 70.304C50.1027 70.304 49.6973 70.1333 49.356 69.792C49.0147 69.4293 48.844 69.0133 48.844 68.544C48.844 68.0533 49.0147 67.648 49.356 67.328C49.6973 66.9867 50.1027 66.816 50.572 66.816H57.804V61.472H53.42C52.9507 61.472 52.5453 61.3013 52.204 60.96C51.8627 60.5973 51.692 60.1813 51.692 59.712C51.692 59.2213 51.8627 58.816 52.204 58.496C52.5453 58.1547 52.9507 57.984 53.42 57.984H65.58C66.0707 57.984 66.4867 58.1547 66.828 58.496C67.1693 58.816 67.34 59.2213 67.34 59.712C67.34 60.1813 67.1693 60.5973 66.828 60.96C66.4867 61.3013 66.0707 61.472 65.58 61.472H61.26V66.816H68.556C69.0467 66.816 69.452 66.9867 69.772 67.328C70.1133 67.648 70.284 68.0533 70.284 68.544C70.284 69.0133 70.1133 69.4293 69.772 69.792C69.452 70.1333 69.0467 70.304 68.556 70.304H50.572ZM85.74 73.344C85.3133 73.6853 84.8333 73.824 84.3 73.76C83.7667 73.696 83.3293 73.4507 82.988 73.024C82.6467 72.5973 82.508 72.1173 82.572 71.584C82.636 71.0293 82.8813 70.5813 83.308 70.24C84.7587 69.1093 85.964 67.7867 86.924 66.272C87.884 64.736 88.5453 63.0613 88.908 61.248C89.292 59.4347 89.3133 57.5573 88.972 55.616C88.8867 55.0613 88.9933 54.5707 89.292 54.144C89.5907 53.696 90.0067 53.4293 90.54 53.344C91.0947 53.2373 91.5853 53.3333 92.012 53.632C92.46 53.9307 92.7267 54.3573 92.812 54.912C92.8547 55.0613 92.876 55.2213 92.876 55.392C92.8973 55.5627 92.9187 55.7333 92.94 55.904C94.86 55.7973 96.3 55.6373 97.26 55.424C98.2413 55.1893 98.892 54.9333 99.212 54.656C99.5533 54.3573 99.724 54.0587 99.724 53.76C99.724 53.312 99.5853 52.9707 99.308 52.736C99.0307 52.48 98.4333 52.352 97.516 52.352H80.588C80.0547 52.352 79.5853 52.16 79.18 51.776C78.796 51.392 78.604 50.9333 78.604 50.4C78.604 49.8453 78.796 49.3867 79.18 49.024C79.5853 48.64 80.0547 48.448 80.588 48.448H97.516C101.74 48.448 103.852 50.1653 103.852 53.6C103.852 54.88 103.479 55.9467 102.732 56.8C102.007 57.632 100.844 58.272 99.244 58.72C97.6653 59.168 95.5853 59.4667 93.004 59.616C92.812 62.3893 92.0867 64.96 90.828 67.328C89.5693 69.696 87.8733 71.7013 85.74 73.344Z" fill="#E9E5E2"/>
</svg>
